<svg xmlns="http://www.w3.org/2000/svg" xmlns:xlink="http://www.w3.org/1999/xlink" width="250" zoomAndPan="magnify" viewBox="0 0 187.5 112.499997" height="150" preserveAspectRatio="xMidYMid meet" version="1.0"><defs><g/><clipPath id="3271afd1e7"><path d="M 0.980469 0.425781 L 87.714844 0.425781 L 87.714844 23 L 0.980469 23 Z M 0.980469 0.425781 " clip-rule="nonzero"/></clipPath><clipPath id="3d208052ee"><rect x="0" width="88" y="0" height="23"/></clipPath><clipPath id="9b0e1899ce"><path d="M 4 19 L 84 19 L 84 33.160156 L 4 33.160156 Z M 4 19 " clip-rule="nonzero"/></clipPath><clipPath id="58efeda98f"><rect x="0" width="80" y="0" height="15"/></clipPath><clipPath id="abdae3edec"><rect x="0" width="88" y="0" height="34"/></clipPath></defs><path stroke-linecap="round" transform="matrix(0.0956341, 0, 0, 0.0963237, 34.796394, 33.800938)" fill="none" stroke-linejoin="round" d="M 315.375447 85.484826 L 190.999989 85.484826 C 129.44537 92.865535 80.226182 150.005202 83.248771 204.225027 C 81.900859 277.788799 154.565536 312.461911 181.482918 312.786338 L 244.875598 312.786338 L 244.875598 266.758289 " stroke="#ffc300" stroke-width="40" stroke-opacity="1" stroke-miterlimit="4"/><path stroke-linecap="round" transform="matrix(0.0956341, 0, 0, 0.0963237, 34.796394, 33.800938)" fill="none" stroke-linejoin="round" d="M 316.478284 331.075897 L 316.478284 172.51231 L 179.154707 172.51231 L 179.277245 214.850004 " stroke="#ffc300" stroke-width="40" stroke-opacity="1" stroke-miterlimit="4"/><path fill="#ffc300" d="M 67.808594 67.1875 C 67.808594 67.554688 67.738281 67.910156 67.597656 68.25 C 67.457031 68.59375 67.257812 68.894531 67 69.152344 C 66.742188 69.414062 66.441406 69.613281 66.105469 69.757812 C 65.765625 69.898438 65.414062 69.96875 65.046875 69.96875 C 64.683594 69.96875 64.328125 69.898438 63.992188 69.757812 C 63.652344 69.613281 63.355469 69.414062 63.097656 69.152344 C 62.835938 68.894531 62.636719 68.59375 62.5 68.25 C 62.359375 67.910156 62.289062 67.554688 62.289062 67.1875 C 62.289062 66.820312 62.359375 66.464844 62.5 66.125 C 62.636719 65.785156 62.835938 65.484375 63.097656 65.222656 C 63.355469 64.960938 63.652344 64.761719 63.992188 64.621094 C 64.328125 64.480469 64.683594 64.40625 65.046875 64.40625 C 65.414062 64.40625 65.765625 64.480469 66.105469 64.621094 C 66.441406 64.761719 66.742188 64.960938 67 65.222656 C 67.257812 65.484375 67.457031 65.785156 67.597656 66.125 C 67.738281 66.464844 67.808594 66.820312 67.808594 67.1875 Z M 67.808594 67.1875 " fill-opacity="1" fill-rule="nonzero"/><g transform="matrix(1, 0, 0, 1, 68, 39)"><g clip-path="url(#abdae3edec)"><g clip-path="url(#3271afd1e7)"><g transform="matrix(1, 0, 0, 1, -0.000000000000014211, 0)"><g clip-path="url(#3d208052ee)"><g fill="#000000" fill-opacity="1"><g transform="translate(1.194991, 18.053327)"><g><path d="M 7.59375 0.21875 C 6.601562 0.21875 5.703125 0.0546875 4.890625 -0.265625 C 4.078125 -0.585938 3.378906 -1.035156 2.796875 -1.609375 C 2.210938 -2.191406 1.757812 -2.878906 1.4375 -3.671875 C 1.113281 -4.472656 0.953125 -5.34375 0.953125 -6.28125 L 0.953125 -6.3125 C 0.953125 -7.207031 1.117188 -8.050781 1.453125 -8.84375 C 1.785156 -9.632812 2.242188 -10.328125 2.828125 -10.921875 C 3.421875 -11.515625 4.117188 -11.984375 4.921875 -12.328125 C 5.722656 -12.671875 6.609375 -12.84375 7.578125 -12.84375 C 8.140625 -12.84375 8.648438 -12.800781 9.109375 -12.71875 C 9.578125 -12.644531 10.007812 -12.535156 10.40625 -12.390625 C 10.800781 -12.242188 11.171875 -12.0625 11.515625 -11.84375 C 11.867188 -11.625 12.207031 -11.378906 12.53125 -11.109375 L 10.78125 -9 C 10.539062 -9.195312 10.300781 -9.375 10.0625 -9.53125 C 9.820312 -9.6875 9.570312 -9.816406 9.3125 -9.921875 C 9.050781 -10.035156 8.769531 -10.125 8.46875 -10.1875 C 8.175781 -10.25 7.847656 -10.28125 7.484375 -10.28125 C 6.972656 -10.28125 6.5 -10.171875 6.0625 -9.953125 C 5.625 -9.742188 5.238281 -9.460938 4.90625 -9.109375 C 4.582031 -8.753906 4.328125 -8.335938 4.140625 -7.859375 C 3.953125 -7.390625 3.859375 -6.882812 3.859375 -6.34375 L 3.859375 -6.3125 C 3.859375 -5.738281 3.953125 -5.207031 4.140625 -4.71875 C 4.328125 -4.226562 4.59375 -3.800781 4.9375 -3.4375 C 5.28125 -3.082031 5.679688 -2.804688 6.140625 -2.609375 C 6.597656 -2.410156 7.113281 -2.3125 7.6875 -2.3125 C 8.71875 -2.3125 9.585938 -2.5625 10.296875 -3.0625 L 10.296875 -4.875 L 7.5 -4.875 L 7.5 -7.265625 L 12.984375 -7.265625 L 12.984375 -1.78125 C 12.335938 -1.226562 11.566406 -0.753906 10.671875 -0.359375 C 9.773438 0.0234375 8.75 0.21875 7.59375 0.21875 Z M 7.59375 0.21875 "/></g></g></g><g fill="#000000" fill-opacity="1"><g transform="translate(15.333346, 18.053327)"><g><path d="M 5.96875 0.21875 C 5.21875 0.21875 4.523438 0.0859375 3.890625 -0.171875 C 3.253906 -0.429688 2.703125 -0.785156 2.234375 -1.234375 C 1.773438 -1.679688 1.410156 -2.207031 1.140625 -2.8125 C 0.878906 -3.425781 0.75 -4.082031 0.75 -4.78125 L 0.75 -4.8125 C 0.75 -5.507812 0.878906 -6.160156 1.140625 -6.765625 C 1.410156 -7.378906 1.78125 -7.910156 2.25 -8.359375 C 2.71875 -8.816406 3.269531 -9.175781 3.90625 -9.4375 C 4.550781 -9.707031 5.25 -9.84375 6 -9.84375 C 6.75 -9.84375 7.441406 -9.710938 8.078125 -9.453125 C 8.710938 -9.191406 9.257812 -8.835938 9.71875 -8.390625 C 10.1875 -7.941406 10.550781 -7.410156 10.8125 -6.796875 C 11.082031 -6.191406 11.21875 -5.539062 11.21875 -4.84375 L 11.21875 -4.8125 C 11.21875 -4.113281 11.082031 -3.460938 10.8125 -2.859375 C 10.550781 -2.253906 10.1875 -1.722656 9.71875 -1.265625 C 9.25 -0.804688 8.695312 -0.441406 8.0625 -0.171875 C 7.425781 0.0859375 6.726562 0.21875 5.96875 0.21875 Z M 6 -2.140625 C 6.394531 -2.140625 6.742188 -2.207031 7.046875 -2.34375 C 7.359375 -2.488281 7.625 -2.679688 7.84375 -2.921875 C 8.0625 -3.160156 8.226562 -3.4375 8.34375 -3.75 C 8.457031 -4.070312 8.515625 -4.414062 8.515625 -4.78125 L 8.515625 -4.8125 C 8.515625 -5.175781 8.453125 -5.515625 8.328125 -5.828125 C 8.210938 -6.148438 8.039062 -6.429688 7.8125 -6.671875 C 7.582031 -6.921875 7.3125 -7.117188 7 -7.265625 C 6.6875 -7.410156 6.34375 -7.484375 5.96875 -7.484375 C 5.570312 -7.484375 5.21875 -7.410156 4.90625 -7.265625 C 4.601562 -7.128906 4.34375 -6.941406 4.125 -6.703125 C 3.90625 -6.460938 3.738281 -6.179688 3.625 -5.859375 C 3.519531 -5.546875 3.46875 -5.207031 3.46875 -4.84375 L 3.46875 -4.8125 C 3.46875 -4.445312 3.523438 -4.101562 3.640625 -3.78125 C 3.765625 -3.46875 3.941406 -3.1875 4.171875 -2.9375 C 4.398438 -2.695312 4.664062 -2.503906 4.96875 -2.359375 C 5.269531 -2.210938 5.613281 -2.140625 6 -2.140625 Z M 6 -2.140625 "/></g></g></g><g fill="#000000" fill-opacity="1"><g transform="translate(27.307669, 18.053327)"><g><path d="M 1.359375 -13.15625 L 4.09375 -13.15625 L 4.09375 0 L 1.359375 0 Z M 1.359375 -13.15625 "/></g></g></g><g fill="#000000" fill-opacity="1"><g transform="translate(32.75382, 18.053327)"><g><path d="M 5.1875 0.1875 C 4.625 0.1875 4.078125 0.078125 3.546875 -0.140625 C 3.023438 -0.359375 2.554688 -0.679688 2.140625 -1.109375 C 1.734375 -1.535156 1.40625 -2.054688 1.15625 -2.671875 C 0.914062 -3.296875 0.796875 -4.007812 0.796875 -4.8125 L 0.796875 -4.84375 C 0.796875 -5.65625 0.914062 -6.367188 1.15625 -6.984375 C 1.40625 -7.609375 1.726562 -8.132812 2.125 -8.5625 C 2.53125 -8.988281 3 -9.304688 3.53125 -9.515625 C 4.0625 -9.734375 4.613281 -9.84375 5.1875 -9.84375 C 5.925781 -9.84375 6.53125 -9.695312 7 -9.40625 C 7.476562 -9.125 7.878906 -8.789062 8.203125 -8.40625 L 8.203125 -13.15625 L 10.9375 -13.15625 L 10.9375 0 L 8.203125 0 L 8.203125 -1.390625 C 7.867188 -0.929688 7.460938 -0.550781 6.984375 -0.25 C 6.515625 0.0390625 5.914062 0.1875 5.1875 0.1875 Z M 5.890625 -2.140625 C 6.222656 -2.140625 6.53125 -2.203125 6.8125 -2.328125 C 7.09375 -2.460938 7.335938 -2.644531 7.546875 -2.875 C 7.753906 -3.113281 7.921875 -3.394531 8.046875 -3.71875 C 8.171875 -4.050781 8.234375 -4.414062 8.234375 -4.8125 L 8.234375 -4.84375 C 8.234375 -5.25 8.171875 -5.613281 8.046875 -5.9375 C 7.921875 -6.269531 7.753906 -6.550781 7.546875 -6.78125 C 7.335938 -7.019531 7.09375 -7.203125 6.8125 -7.328125 C 6.53125 -7.453125 6.222656 -7.515625 5.890625 -7.515625 C 5.566406 -7.515625 5.265625 -7.453125 4.984375 -7.328125 C 4.703125 -7.203125 4.453125 -7.019531 4.234375 -6.78125 C 4.015625 -6.550781 3.84375 -6.273438 3.71875 -5.953125 C 3.59375 -5.628906 3.53125 -5.257812 3.53125 -4.84375 L 3.53125 -4.8125 C 3.53125 -4.414062 3.59375 -4.050781 3.71875 -3.71875 C 3.84375 -3.394531 4.015625 -3.113281 4.234375 -2.875 C 4.453125 -2.644531 4.703125 -2.460938 4.984375 -2.328125 C 5.265625 -2.203125 5.566406 -2.140625 5.890625 -2.140625 Z M 5.890625 -2.140625 "/></g></g></g><g fill="#000000" fill-opacity="1"><g transform="translate(44.926511, 18.053327)"><g><path d="M 4.453125 -10.0625 L 0.609375 -10.0625 L 0.609375 -12.625 L 11.078125 -12.625 L 11.078125 -10.0625 L 7.234375 -10.0625 L 7.234375 0 L 4.453125 0 Z M 4.453125 -10.0625 "/></g></g></g><g fill="#000000" fill-opacity="1"><g transform="translate(54.718712, 18.053327)"><g><path d="M 5.8125 0.21875 C 5.082031 0.21875 4.40625 0.0976562 3.78125 -0.140625 C 3.164062 -0.378906 2.632812 -0.722656 2.1875 -1.171875 C 1.738281 -1.617188 1.382812 -2.144531 1.125 -2.75 C 0.875 -3.351562 0.75 -4.03125 0.75 -4.78125 L 0.75 -4.8125 C 0.75 -5.5 0.863281 -6.148438 1.09375 -6.765625 C 1.332031 -7.378906 1.660156 -7.910156 2.078125 -8.359375 C 2.503906 -8.816406 3.007812 -9.175781 3.59375 -9.4375 C 4.175781 -9.707031 4.820312 -9.84375 5.53125 -9.84375 C 6.34375 -9.84375 7.039062 -9.695312 7.625 -9.40625 C 8.21875 -9.125 8.707031 -8.738281 9.09375 -8.25 C 9.488281 -7.757812 9.773438 -7.195312 9.953125 -6.5625 C 10.140625 -5.9375 10.234375 -5.28125 10.234375 -4.59375 C 10.234375 -4.488281 10.226562 -4.375 10.21875 -4.25 C 10.21875 -4.132812 10.210938 -4.007812 10.203125 -3.875 L 3.484375 -3.875 C 3.609375 -3.25 3.878906 -2.773438 4.296875 -2.453125 C 4.710938 -2.140625 5.226562 -1.984375 5.84375 -1.984375 C 6.300781 -1.984375 6.707031 -2.0625 7.0625 -2.21875 C 7.425781 -2.375 7.800781 -2.625 8.1875 -2.96875 L 9.75 -1.59375 C 9.289062 -1.019531 8.738281 -0.570312 8.09375 -0.25 C 7.445312 0.0625 6.6875 0.21875 5.8125 0.21875 Z M 7.578125 -5.59375 C 7.492188 -6.207031 7.273438 -6.703125 6.921875 -7.078125 C 6.578125 -7.453125 6.113281 -7.640625 5.53125 -7.640625 C 4.957031 -7.640625 4.492188 -7.453125 4.140625 -7.078125 C 3.785156 -6.710938 3.550781 -6.21875 3.4375 -5.59375 Z M 7.578125 -5.59375 "/></g></g></g><g fill="#000000" fill-opacity="1"><g transform="translate(65.773319, 18.053327)"><g><path d="M 5.78125 0.21875 C 5.0625 0.21875 4.390625 0.0859375 3.765625 -0.171875 C 3.148438 -0.441406 2.617188 -0.800781 2.171875 -1.25 C 1.734375 -1.695312 1.382812 -2.222656 1.125 -2.828125 C 0.875 -3.441406 0.75 -4.09375 0.75 -4.78125 L 0.75 -4.8125 C 0.75 -5.5 0.875 -6.148438 1.125 -6.765625 C 1.382812 -7.378906 1.734375 -7.910156 2.171875 -8.359375 C 2.617188 -8.816406 3.148438 -9.175781 3.765625 -9.4375 C 4.390625 -9.707031 5.078125 -9.84375 5.828125 -9.84375 C 6.734375 -9.84375 7.488281 -9.695312 8.09375 -9.40625 C 8.695312 -9.125 9.226562 -8.726562 9.6875 -8.21875 L 8 -6.421875 C 7.6875 -6.742188 7.363281 -7 7.03125 -7.1875 C 6.707031 -7.382812 6.300781 -7.484375 5.8125 -7.484375 C 5.457031 -7.484375 5.140625 -7.410156 4.859375 -7.265625 C 4.578125 -7.128906 4.328125 -6.941406 4.109375 -6.703125 C 3.898438 -6.460938 3.738281 -6.179688 3.625 -5.859375 C 3.519531 -5.546875 3.46875 -5.207031 3.46875 -4.84375 L 3.46875 -4.8125 C 3.46875 -4.4375 3.519531 -4.085938 3.625 -3.765625 C 3.738281 -3.441406 3.90625 -3.160156 4.125 -2.921875 C 4.34375 -2.679688 4.601562 -2.488281 4.90625 -2.34375 C 5.207031 -2.207031 5.546875 -2.140625 5.921875 -2.140625 C 6.367188 -2.140625 6.765625 -2.234375 7.109375 -2.421875 C 7.453125 -2.609375 7.789062 -2.859375 8.125 -3.171875 L 9.734375 -1.546875 C 9.265625 -1.035156 8.726562 -0.613281 8.125 -0.28125 C 7.53125 0.0507812 6.75 0.21875 5.78125 0.21875 Z M 5.78125 0.21875 "/></g></g></g><g fill="#000000" fill-opacity="1"><g transform="translate(76.070519, 18.053327)"><g><path d="M 1.21875 -13.15625 L 3.96875 -13.15625 L 3.96875 -8.296875 C 4.125 -8.492188 4.296875 -8.6875 4.484375 -8.875 C 4.671875 -9.0625 4.878906 -9.226562 5.109375 -9.375 C 5.335938 -9.519531 5.585938 -9.632812 5.859375 -9.71875 C 6.140625 -9.800781 6.453125 -9.84375 6.796875 -9.84375 C 7.835938 -9.84375 8.644531 -9.523438 9.21875 -8.890625 C 9.789062 -8.253906 10.078125 -7.375 10.078125 -6.25 L 10.078125 0 L 7.34375 0 L 7.34375 -5.390625 C 7.34375 -6.035156 7.195312 -6.523438 6.90625 -6.859375 C 6.613281 -7.191406 6.207031 -7.359375 5.6875 -7.359375 C 5.15625 -7.359375 4.734375 -7.191406 4.421875 -6.859375 C 4.117188 -6.523438 3.96875 -6.035156 3.96875 -5.390625 L 3.96875 0 L 1.21875 0 Z M 1.21875 -13.15625 "/></g></g></g></g></g></g><g clip-path="url(#9b0e1899ce)"><g transform="matrix(1, 0, 0, 1, 4, 19)"><g clip-path="url(#58efeda98f)"><g fill="#000000" fill-opacity="1"><g transform="translate(1.084437, 11.116769)"><g><path d="M 4.640625 0.140625 C 4.085938 0.140625 3.570312 0.0351562 3.09375 -0.171875 C 2.625 -0.378906 2.210938 -0.660156 1.859375 -1.015625 C 1.515625 -1.378906 1.242188 -1.804688 1.046875 -2.296875 C 0.847656 -2.785156 0.75 -3.304688 0.75 -3.859375 L 0.75 -3.890625 C 0.75 -4.429688 0.847656 -4.945312 1.046875 -5.4375 C 1.242188 -5.925781 1.515625 -6.351562 1.859375 -6.71875 C 2.210938 -7.082031 2.628906 -7.367188 3.109375 -7.578125 C 3.585938 -7.796875 4.113281 -7.90625 4.6875 -7.90625 C 5.039062 -7.90625 5.359375 -7.875 5.640625 -7.8125 C 5.921875 -7.75 6.179688 -7.664062 6.421875 -7.5625 C 6.671875 -7.457031 6.898438 -7.328125 7.109375 -7.171875 C 7.316406 -7.015625 7.515625 -6.847656 7.703125 -6.671875 L 7.109375 -6.03125 C 6.773438 -6.332031 6.414062 -6.582031 6.03125 -6.78125 C 5.65625 -6.988281 5.203125 -7.09375 4.671875 -7.09375 C 4.242188 -7.09375 3.84375 -7.007812 3.46875 -6.84375 C 3.101562 -6.675781 2.785156 -6.445312 2.515625 -6.15625 C 2.253906 -5.875 2.046875 -5.539062 1.890625 -5.15625 C 1.742188 -4.769531 1.671875 -4.351562 1.671875 -3.90625 L 1.671875 -3.890625 C 1.671875 -3.429688 1.742188 -3.007812 1.890625 -2.625 C 2.046875 -2.238281 2.253906 -1.898438 2.515625 -1.609375 C 2.785156 -1.316406 3.101562 -1.085938 3.46875 -0.921875 C 3.84375 -0.753906 4.242188 -0.671875 4.671875 -0.671875 C 5.203125 -0.671875 5.660156 -0.769531 6.046875 -0.96875 C 6.429688 -1.164062 6.804688 -1.441406 7.171875 -1.796875 L 7.75 -1.234375 C 7.550781 -1.023438 7.34375 -0.835938 7.125 -0.671875 C 6.90625 -0.503906 6.671875 -0.359375 6.421875 -0.234375 C 6.171875 -0.117188 5.898438 -0.03125 5.609375 0.03125 C 5.328125 0.101562 5.003906 0.140625 4.640625 0.140625 Z M 4.640625 0.140625 "/></g></g></g><g fill="#000000" fill-opacity="1"><g transform="translate(9.428487, 11.116769)"><g><path d="M 4.703125 0.140625 C 4.109375 0.140625 3.566406 0.03125 3.078125 -0.1875 C 2.597656 -0.40625 2.179688 -0.695312 1.828125 -1.0625 C 1.484375 -1.425781 1.21875 -1.847656 1.03125 -2.328125 C 0.84375 -2.816406 0.75 -3.328125 0.75 -3.859375 L 0.75 -3.890625 C 0.75 -4.421875 0.84375 -4.925781 1.03125 -5.40625 C 1.226562 -5.894531 1.5 -6.320312 1.84375 -6.6875 C 2.195312 -7.0625 2.617188 -7.359375 3.109375 -7.578125 C 3.597656 -7.796875 4.132812 -7.90625 4.71875 -7.90625 C 5.3125 -7.90625 5.847656 -7.796875 6.328125 -7.578125 C 6.816406 -7.359375 7.234375 -7.066406 7.578125 -6.703125 C 7.929688 -6.335938 8.203125 -5.910156 8.390625 -5.421875 C 8.578125 -4.941406 8.671875 -4.4375 8.671875 -3.90625 L 8.671875 -3.890625 C 8.671875 -3.347656 8.570312 -2.832031 8.375 -2.34375 C 8.1875 -1.863281 7.921875 -1.4375 7.578125 -1.0625 C 7.234375 -0.695312 6.816406 -0.40625 6.328125 -0.1875 C 5.835938 0.03125 5.296875 0.140625 4.703125 0.140625 Z M 4.71875 -0.671875 C 5.164062 -0.671875 5.578125 -0.753906 5.953125 -0.921875 C 6.328125 -1.085938 6.644531 -1.316406 6.90625 -1.609375 C 7.175781 -1.898438 7.382812 -2.234375 7.53125 -2.609375 C 7.6875 -2.992188 7.765625 -3.410156 7.765625 -3.859375 L 7.765625 -3.890625 C 7.765625 -4.328125 7.6875 -4.738281 7.53125 -5.125 C 7.382812 -5.519531 7.171875 -5.859375 6.890625 -6.140625 C 6.617188 -6.429688 6.296875 -6.660156 5.921875 -6.828125 C 5.554688 -7.003906 5.148438 -7.09375 4.703125 -7.09375 C 4.253906 -7.09375 3.84375 -7.007812 3.46875 -6.84375 C 3.101562 -6.675781 2.785156 -6.445312 2.515625 -6.15625 C 2.253906 -5.863281 2.046875 -5.523438 1.890625 -5.140625 C 1.742188 -4.765625 1.671875 -4.351562 1.671875 -3.90625 L 1.671875 -3.890625 C 1.671875 -3.441406 1.742188 -3.019531 1.890625 -2.625 C 2.046875 -2.238281 2.257812 -1.898438 2.53125 -1.609375 C 2.800781 -1.328125 3.125 -1.097656 3.5 -0.921875 C 3.875 -0.753906 4.28125 -0.671875 4.71875 -0.671875 Z M 4.71875 -0.671875 "/></g></g></g><g fill="#000000" fill-opacity="1"><g transform="translate(19.192806, 11.116769)"><g><path d="M 1.09375 -7.765625 L 1.921875 -7.765625 L 6.8125 -1.546875 L 6.8125 -7.765625 L 7.671875 -7.765625 L 7.671875 0 L 6.96875 0 L 1.953125 -6.375 L 1.953125 0 L 1.09375 0 Z M 1.09375 -7.765625 "/></g></g></g><g fill="#000000" fill-opacity="1"><g transform="translate(28.291381, 11.116769)"><g><path d="M 3.765625 0.109375 C 3.140625 0.109375 2.566406 0.0078125 2.046875 -0.1875 C 1.535156 -0.394531 1.050781 -0.707031 0.59375 -1.125 L 1.125 -1.78125 C 1.53125 -1.40625 1.941406 -1.125 2.359375 -0.9375 C 2.773438 -0.757812 3.253906 -0.671875 3.796875 -0.671875 C 4.316406 -0.671875 4.734375 -0.796875 5.046875 -1.046875 C 5.367188 -1.296875 5.53125 -1.613281 5.53125 -2 L 5.53125 -2.015625 C 5.53125 -2.191406 5.5 -2.351562 5.4375 -2.5 C 5.375 -2.644531 5.269531 -2.773438 5.125 -2.890625 C 4.976562 -3.015625 4.769531 -3.125 4.5 -3.21875 C 4.238281 -3.3125 3.90625 -3.40625 3.5 -3.5 C 3.0625 -3.59375 2.675781 -3.703125 2.34375 -3.828125 C 2.019531 -3.953125 1.75 -4.101562 1.53125 -4.28125 C 1.3125 -4.457031 1.148438 -4.664062 1.046875 -4.90625 C 0.953125 -5.144531 0.90625 -5.421875 0.90625 -5.734375 L 0.90625 -5.75 C 0.90625 -6.0625 0.96875 -6.34375 1.09375 -6.59375 C 1.21875 -6.851562 1.394531 -7.078125 1.625 -7.265625 C 1.851562 -7.460938 2.117188 -7.613281 2.421875 -7.71875 C 2.734375 -7.820312 3.078125 -7.875 3.453125 -7.875 C 4.015625 -7.875 4.507812 -7.796875 4.9375 -7.640625 C 5.363281 -7.484375 5.773438 -7.242188 6.171875 -6.921875 L 5.671875 -6.25 C 5.304688 -6.539062 4.941406 -6.753906 4.578125 -6.890625 C 4.210938 -7.023438 3.828125 -7.09375 3.421875 -7.09375 C 2.910156 -7.09375 2.507812 -6.972656 2.21875 -6.734375 C 1.925781 -6.492188 1.78125 -6.191406 1.78125 -5.828125 L 1.78125 -5.8125 C 1.78125 -5.625 1.804688 -5.457031 1.859375 -5.3125 C 1.921875 -5.175781 2.03125 -5.046875 2.1875 -4.921875 C 2.34375 -4.796875 2.554688 -4.679688 2.828125 -4.578125 C 3.097656 -4.484375 3.453125 -4.390625 3.890625 -4.296875 C 4.753906 -4.109375 5.390625 -3.84375 5.796875 -3.5 C 6.203125 -3.164062 6.40625 -2.703125 6.40625 -2.109375 L 6.40625 -2.078125 C 6.40625 -1.753906 6.335938 -1.457031 6.203125 -1.1875 C 6.078125 -0.914062 5.894531 -0.679688 5.65625 -0.484375 C 5.425781 -0.296875 5.148438 -0.148438 4.828125 -0.046875 C 4.503906 0.0546875 4.148438 0.109375 3.765625 0.109375 Z M 3.765625 0.109375 "/></g></g></g><g fill="#000000" fill-opacity="1"><g transform="translate(35.725598, 11.116769)"><g><path d="M 4.203125 0.125 C 3.722656 0.125 3.285156 0.0507812 2.890625 -0.09375 C 2.492188 -0.238281 2.148438 -0.453125 1.859375 -0.734375 C 1.578125 -1.023438 1.359375 -1.378906 1.203125 -1.796875 C 1.046875 -2.210938 0.96875 -2.695312 0.96875 -3.25 L 0.96875 -7.765625 L 1.859375 -7.765625 L 1.859375 -3.3125 C 1.859375 -2.46875 2.066406 -1.816406 2.484375 -1.359375 C 2.898438 -0.910156 3.484375 -0.6875 4.234375 -0.6875 C 4.941406 -0.6875 5.503906 -0.898438 5.921875 -1.328125 C 6.347656 -1.753906 6.5625 -2.394531 6.5625 -3.25 L 6.5625 -7.765625 L 7.4375 -7.765625 L 7.4375 -3.3125 C 7.4375 -2.75 7.359375 -2.25 7.203125 -1.8125 C 7.054688 -1.382812 6.835938 -1.023438 6.546875 -0.734375 C 6.265625 -0.453125 5.925781 -0.238281 5.53125 -0.09375 C 5.132812 0.0507812 4.691406 0.125 4.203125 0.125 Z M 4.203125 0.125 "/></g></g></g><g fill="#000000" fill-opacity="1"><g transform="translate(44.480205, 11.116769)"><g><path d="M 1.09375 -7.765625 L 1.96875 -7.765625 L 1.96875 -0.8125 L 6.34375 -0.8125 L 6.34375 0 L 1.09375 0 Z M 1.09375 -7.765625 "/></g></g></g><g fill="#000000" fill-opacity="1"><g transform="translate(50.605035, 11.116769)"><g><path d="M 3.125 -6.953125 L 0.5 -6.953125 L 0.5 -7.765625 L 6.609375 -7.765625 L 6.609375 -6.953125 L 4 -6.953125 L 4 0 L 3.125 0 Z M 3.125 -6.953125 "/></g></g></g><g fill="#000000" fill-opacity="1"><g transform="translate(58.050351, 11.116769)"><g><path d="M 1.171875 -7.765625 L 2.046875 -7.765625 L 2.046875 0 L 1.171875 0 Z M 1.171875 -7.765625 "/></g></g></g><g fill="#000000" fill-opacity="1"><g transform="translate(61.61216, 11.116769)"><g><path d="M 1.09375 -7.765625 L 1.921875 -7.765625 L 6.8125 -1.546875 L 6.8125 -7.765625 L 7.671875 -7.765625 L 7.671875 0 L 6.96875 0 L 1.953125 -6.375 L 1.953125 0 L 1.09375 0 Z M 1.09375 -7.765625 "/></g></g></g><g fill="#000000" fill-opacity="1"><g transform="translate(70.710731, 11.116769)"><g><path d="M 4.703125 0.140625 C 4.085938 0.140625 3.535156 0.0351562 3.046875 -0.171875 C 2.566406 -0.378906 2.15625 -0.664062 1.8125 -1.03125 C 1.46875 -1.394531 1.203125 -1.816406 1.015625 -2.296875 C 0.835938 -2.785156 0.75 -3.304688 0.75 -3.859375 L 0.75 -3.890625 C 0.75 -4.421875 0.84375 -4.925781 1.03125 -5.40625 C 1.21875 -5.894531 1.484375 -6.320312 1.828125 -6.6875 C 2.171875 -7.0625 2.578125 -7.359375 3.046875 -7.578125 C 3.523438 -7.796875 4.054688 -7.90625 4.640625 -7.90625 C 4.972656 -7.90625 5.273438 -7.878906 5.546875 -7.828125 C 5.816406 -7.785156 6.066406 -7.71875 6.296875 -7.625 C 6.523438 -7.539062 6.738281 -7.429688 6.9375 -7.296875 C 7.144531 -7.171875 7.347656 -7.023438 7.546875 -6.859375 L 6.984375 -6.203125 C 6.828125 -6.335938 6.664062 -6.457031 6.5 -6.5625 C 6.34375 -6.664062 6.171875 -6.753906 5.984375 -6.828125 C 5.796875 -6.910156 5.585938 -6.972656 5.359375 -7.015625 C 5.140625 -7.066406 4.890625 -7.09375 4.609375 -7.09375 C 4.179688 -7.09375 3.785156 -7.003906 3.421875 -6.828125 C 3.066406 -6.660156 2.757812 -6.429688 2.5 -6.140625 C 2.238281 -5.859375 2.035156 -5.519531 1.890625 -5.125 C 1.742188 -4.738281 1.671875 -4.332031 1.671875 -3.90625 L 1.671875 -3.890625 C 1.671875 -3.421875 1.738281 -2.988281 1.875 -2.59375 C 2.019531 -2.207031 2.222656 -1.867188 2.484375 -1.578125 C 2.753906 -1.285156 3.078125 -1.054688 3.453125 -0.890625 C 3.835938 -0.734375 4.265625 -0.65625 4.734375 -0.65625 C 5.179688 -0.65625 5.597656 -0.726562 5.984375 -0.875 C 6.378906 -1.03125 6.710938 -1.21875 6.984375 -1.4375 L 6.984375 -3.359375 L 4.609375 -3.359375 L 4.609375 -4.15625 L 7.828125 -4.15625 L 7.828125 -1.046875 C 7.460938 -0.722656 7.015625 -0.441406 6.484375 -0.203125 C 5.953125 0.0234375 5.359375 0.140625 4.703125 0.140625 Z M 4.703125 0.140625 "/></g></g></g></g></g></g></g></g></svg>