<svg xmlns="http://www.w3.org/2000/svg" xmlns:xlink="http://www.w3.org/1999/xlink" width="500" zoomAndPan="magnify" viewBox="0 0 375 187.499995" height="250" preserveAspectRatio="xMidYMid meet" version="1.0"><defs><g/><clipPath id="d8bb4a17f8"><path d="M 61 11 L 219.375 11 L 219.375 52 L 61 52 Z M 61 11 " clip-rule="nonzero"/></clipPath><clipPath id="fcc736319e"><rect x="0" width="159" y="0" height="41"/></clipPath><clipPath id="33bcae629e"><rect x="0" width="154" y="0" height="26"/></clipPath><clipPath id="0ebafe0c8c"><rect x="0" width="220" y="0" height="84"/></clipPath></defs><g transform="matrix(1, 0, 0, 1, 82, 52)"><g clip-path="url(#0ebafe0c8c)"><path stroke-linecap="round" transform="matrix(0.176224, 0, 0, 0.175222, -1.371706, 0.944408)" fill="none" stroke-linejoin="round" d="M 315.386695 85.477169 L 190.988983 85.477169 C 129.432953 92.856208 80.223594 150.015892 83.238222 204.232878 C 81.886073 277.778041 154.569625 312.466211 181.479607 312.800608 L 244.875447 312.800608 L 244.875447 266.742922 " stroke="#ffc300" stroke-width="40" stroke-opacity="1" stroke-miterlimit="4"/><path stroke-linecap="round" transform="matrix(0.176224, 0, 0, 0.175222, -1.371706, 0.944408)" fill="none" stroke-linejoin="round" d="M 316.472847 331.058713 L 316.472847 172.531992 L 179.152138 172.531992 L 179.285136 214.844426 " stroke="#ffc300" stroke-width="40" stroke-opacity="1" stroke-miterlimit="4"/><path fill="#ffc300" d="M 59.457031 61.679688 C 59.457031 62.011719 59.425781 62.339844 59.359375 62.664062 C 59.296875 62.992188 59.199219 63.304688 59.070312 63.613281 C 58.945312 63.921875 58.785156 64.210938 58.601562 64.488281 C 58.414062 64.761719 58.203125 65.019531 57.96875 65.253906 C 57.734375 65.488281 57.476562 65.699219 57.199219 65.882812 C 56.921875 66.066406 56.628906 66.222656 56.320312 66.351562 C 56.011719 66.476562 55.691406 66.574219 55.363281 66.636719 C 55.039062 66.703125 54.707031 66.734375 54.371094 66.734375 C 54.039062 66.734375 53.707031 66.703125 53.378906 66.636719 C 53.054688 66.574219 52.734375 66.476562 52.425781 66.351562 C 52.117188 66.222656 51.824219 66.066406 51.546875 65.882812 C 51.269531 65.699219 51.011719 65.488281 50.777344 65.253906 C 50.539062 65.019531 50.328125 64.761719 50.144531 64.488281 C 49.957031 64.210938 49.800781 63.921875 49.675781 63.613281 C 49.546875 63.304688 49.449219 62.992188 49.386719 62.664062 C 49.320312 62.339844 49.285156 62.011719 49.285156 61.679688 C 49.285156 61.347656 49.320312 61.015625 49.386719 60.691406 C 49.449219 60.367188 49.546875 60.050781 49.675781 59.742188 C 49.800781 59.4375 49.957031 59.144531 50.144531 58.867188 C 50.328125 58.59375 50.539062 58.335938 50.777344 58.101562 C 51.011719 57.867188 51.269531 57.65625 51.546875 57.472656 C 51.824219 57.289062 52.117188 57.132812 52.425781 57.007812 C 52.734375 56.878906 53.054688 56.785156 53.378906 56.71875 C 53.707031 56.652344 54.039062 56.621094 54.371094 56.621094 C 54.707031 56.621094 55.039062 56.652344 55.363281 56.71875 C 55.691406 56.785156 56.011719 56.878906 56.320312 57.007812 C 56.628906 57.132812 56.921875 57.289062 57.199219 57.472656 C 57.476562 57.65625 57.734375 57.867188 57.96875 58.101562 C 58.203125 58.335938 58.414062 58.59375 58.601562 58.867188 C 58.785156 59.144531 58.945312 59.4375 59.070312 59.742188 C 59.199219 60.050781 59.296875 60.367188 59.359375 60.691406 C 59.425781 61.015625 59.457031 61.347656 59.457031 61.679688 Z M 59.457031 61.679688 " fill-opacity="1" fill-rule="nonzero"/><g clip-path="url(#d8bb4a17f8)"><g transform="matrix(1, 0, 0, 1, 61, 11)"><g clip-path="url(#fcc736319e)"><g fill="#000000" fill-opacity="1"><g transform="translate(0.474155, 32.422537)"><g><path d="M 13.859375 0.390625 C 12.066406 0.390625 10.425781 0.09375 8.9375 -0.5 C 7.457031 -1.09375 6.1875 -1.914062 5.125 -2.96875 C 4.0625 -4.019531 3.234375 -5.269531 2.640625 -6.71875 C 2.046875 -8.164062 1.75 -9.75 1.75 -11.46875 L 1.75 -11.53125 C 1.75 -13.175781 2.050781 -14.71875 2.65625 -16.15625 C 3.257812 -17.59375 4.097656 -18.851562 5.171875 -19.9375 C 6.242188 -21.03125 7.515625 -21.890625 8.984375 -22.515625 C 10.460938 -23.140625 12.078125 -23.453125 13.828125 -23.453125 C 14.859375 -23.453125 15.796875 -23.378906 16.640625 -23.234375 C 17.492188 -23.085938 18.28125 -22.882812 19 -22.625 C 19.726562 -22.363281 20.410156 -22.035156 21.046875 -21.640625 C 21.679688 -21.242188 22.296875 -20.796875 22.890625 -20.296875 L 19.703125 -16.4375 C 19.253906 -16.8125 18.8125 -17.140625 18.375 -17.421875 C 17.9375 -17.710938 17.476562 -17.953125 17 -18.140625 C 16.53125 -18.335938 16.019531 -18.492188 15.46875 -18.609375 C 14.925781 -18.722656 14.328125 -18.78125 13.671875 -18.78125 C 12.742188 -18.78125 11.878906 -18.585938 11.078125 -18.203125 C 10.273438 -17.816406 9.570312 -17.296875 8.96875 -16.640625 C 8.363281 -15.992188 7.890625 -15.238281 7.546875 -14.375 C 7.210938 -13.507812 7.046875 -12.582031 7.046875 -11.59375 L 7.046875 -11.53125 C 7.046875 -10.476562 7.210938 -9.503906 7.546875 -8.609375 C 7.890625 -7.722656 8.375 -6.945312 9 -6.28125 C 9.632812 -5.625 10.375 -5.113281 11.21875 -4.75 C 12.0625 -4.394531 13 -4.21875 14.03125 -4.21875 C 15.914062 -4.21875 17.507812 -4.675781 18.8125 -5.59375 L 18.8125 -8.890625 L 13.703125 -8.890625 L 13.703125 -13.28125 L 23.71875 -13.28125 L 23.71875 -3.265625 C 22.53125 -2.253906 21.117188 -1.390625 19.484375 -0.671875 C 17.847656 0.0351562 15.972656 0.390625 13.859375 0.390625 Z M 13.859375 0.390625 "/></g></g></g><g fill="#000000" fill-opacity="1"><g transform="translate(26.297681, 32.422537)"><g><path d="M 10.90625 0.390625 C 9.539062 0.390625 8.273438 0.15625 7.109375 -0.3125 C 5.953125 -0.78125 4.945312 -1.425781 4.09375 -2.25 C 3.25 -3.070312 2.585938 -4.035156 2.109375 -5.140625 C 1.628906 -6.253906 1.390625 -7.453125 1.390625 -8.734375 L 1.390625 -8.796875 C 1.390625 -10.066406 1.628906 -11.253906 2.109375 -12.359375 C 2.585938 -13.472656 3.253906 -14.445312 4.109375 -15.28125 C 4.972656 -16.113281 5.984375 -16.769531 7.140625 -17.25 C 8.304688 -17.738281 9.582031 -17.984375 10.96875 -17.984375 C 12.332031 -17.984375 13.59375 -17.742188 14.75 -17.265625 C 15.914062 -16.796875 16.921875 -16.148438 17.765625 -15.328125 C 18.609375 -14.503906 19.269531 -13.535156 19.75 -12.421875 C 20.238281 -11.316406 20.484375 -10.128906 20.484375 -8.859375 L 20.484375 -8.796875 C 20.484375 -7.523438 20.238281 -6.332031 19.75 -5.21875 C 19.269531 -4.113281 18.601562 -3.140625 17.75 -2.296875 C 16.894531 -1.460938 15.882812 -0.804688 14.71875 -0.328125 C 13.5625 0.148438 12.289062 0.390625 10.90625 0.390625 Z M 10.96875 -3.921875 C 11.695312 -3.921875 12.335938 -4.046875 12.890625 -4.296875 C 13.453125 -4.546875 13.929688 -4.890625 14.328125 -5.328125 C 14.722656 -5.773438 15.023438 -6.285156 15.234375 -6.859375 C 15.441406 -7.441406 15.546875 -8.066406 15.546875 -8.734375 L 15.546875 -8.796875 C 15.546875 -9.453125 15.4375 -10.070312 15.21875 -10.65625 C 15 -11.238281 14.679688 -11.753906 14.265625 -12.203125 C 13.847656 -12.648438 13.351562 -13.003906 12.78125 -13.265625 C 12.207031 -13.535156 11.582031 -13.671875 10.90625 -13.671875 C 10.175781 -13.671875 9.53125 -13.539062 8.96875 -13.28125 C 8.414062 -13.03125 7.941406 -12.6875 7.546875 -12.25 C 7.148438 -11.8125 6.847656 -11.300781 6.640625 -10.71875 C 6.429688 -10.132812 6.328125 -9.515625 6.328125 -8.859375 L 6.328125 -8.796875 C 6.328125 -8.140625 6.4375 -7.519531 6.65625 -6.9375 C 6.875 -6.351562 7.191406 -5.832031 7.609375 -5.375 C 8.023438 -4.925781 8.515625 -4.570312 9.078125 -4.3125 C 9.640625 -4.050781 10.269531 -3.921875 10.96875 -3.921875 Z M 10.96875 -3.921875 "/></g></g></g><g fill="#000000" fill-opacity="1"><g transform="translate(48.168627, 32.422537)"><g><path d="M 2.46875 -24.046875 L 7.484375 -24.046875 L 7.484375 0 L 2.46875 0 Z M 2.46875 -24.046875 "/></g></g></g><g fill="#000000" fill-opacity="1"><g transform="translate(58.115952, 32.422537)"><g><path d="M 9.484375 0.328125 C 8.453125 0.328125 7.453125 0.128906 6.484375 -0.265625 C 5.523438 -0.660156 4.671875 -1.242188 3.921875 -2.015625 C 3.171875 -2.796875 2.570312 -3.753906 2.125 -4.890625 C 1.675781 -6.023438 1.453125 -7.328125 1.453125 -8.796875 L 1.453125 -8.859375 C 1.453125 -10.328125 1.675781 -11.625 2.125 -12.75 C 2.570312 -13.882812 3.160156 -14.84375 3.890625 -15.625 C 4.628906 -16.40625 5.484375 -16.992188 6.453125 -17.390625 C 7.421875 -17.785156 8.429688 -17.984375 9.484375 -17.984375 C 10.828125 -17.984375 11.929688 -17.71875 12.796875 -17.1875 C 13.660156 -16.664062 14.390625 -16.050781 14.984375 -15.34375 L 14.984375 -24.046875 L 20 -24.046875 L 20 0 L 14.984375 0 L 14.984375 -2.53125 C 14.367188 -1.695312 13.628906 -1.007812 12.765625 -0.46875 C 11.898438 0.0625 10.804688 0.328125 9.484375 0.328125 Z M 10.765625 -3.921875 C 11.359375 -3.921875 11.910156 -4.035156 12.421875 -4.265625 C 12.941406 -4.492188 13.394531 -4.820312 13.78125 -5.25 C 14.164062 -5.675781 14.472656 -6.191406 14.703125 -6.796875 C 14.929688 -7.398438 15.046875 -8.066406 15.046875 -8.796875 L 15.046875 -8.859375 C 15.046875 -9.585938 14.929688 -10.253906 14.703125 -10.859375 C 14.472656 -11.460938 14.164062 -11.976562 13.78125 -12.40625 C 13.394531 -12.832031 12.941406 -13.160156 12.421875 -13.390625 C 11.910156 -13.617188 11.359375 -13.734375 10.765625 -13.734375 C 10.171875 -13.734375 9.613281 -13.617188 9.09375 -13.390625 C 8.582031 -13.160156 8.128906 -12.832031 7.734375 -12.40625 C 7.335938 -11.976562 7.023438 -11.46875 6.796875 -10.875 C 6.566406 -10.28125 6.453125 -9.609375 6.453125 -8.859375 L 6.453125 -8.796875 C 6.453125 -8.066406 6.566406 -7.398438 6.796875 -6.796875 C 7.023438 -6.191406 7.335938 -5.675781 7.734375 -5.25 C 8.128906 -4.820312 8.582031 -4.492188 9.09375 -4.265625 C 9.613281 -4.035156 10.171875 -3.921875 10.765625 -3.921875 Z M 10.765625 -3.921875 "/></g></g></g><g fill="#000000" fill-opacity="1"><g transform="translate(80.349216, 32.422537)"><g><path d="M 8.140625 -18.375 L 1.125 -18.375 L 1.125 -23.0625 L 20.21875 -23.0625 L 20.21875 -18.375 L 13.203125 -18.375 L 13.203125 0 L 8.140625 0 Z M 8.140625 -18.375 "/></g></g></g><g fill="#000000" fill-opacity="1"><g transform="translate(98.234547, 32.422537)"><g><path d="M 10.609375 0.390625 C 9.285156 0.390625 8.054688 0.171875 6.921875 -0.265625 C 5.796875 -0.703125 4.820312 -1.328125 4 -2.140625 C 3.175781 -2.953125 2.535156 -3.910156 2.078125 -5.015625 C 1.617188 -6.128906 1.390625 -7.367188 1.390625 -8.734375 L 1.390625 -8.796875 C 1.390625 -10.046875 1.601562 -11.226562 2.03125 -12.34375 C 2.457031 -13.46875 3.050781 -14.445312 3.8125 -15.28125 C 4.582031 -16.113281 5.5 -16.769531 6.5625 -17.25 C 7.632812 -17.738281 8.816406 -17.984375 10.109375 -17.984375 C 11.578125 -17.984375 12.847656 -17.71875 13.921875 -17.1875 C 15.003906 -16.664062 15.898438 -15.957031 16.609375 -15.0625 C 17.328125 -14.175781 17.851562 -13.15625 18.1875 -12 C 18.53125 -10.851562 18.703125 -9.65625 18.703125 -8.40625 C 18.703125 -8.207031 18.695312 -7.992188 18.6875 -7.765625 C 18.675781 -7.546875 18.660156 -7.316406 18.640625 -7.078125 L 6.359375 -7.078125 C 6.597656 -5.941406 7.09375 -5.082031 7.84375 -4.5 C 8.601562 -3.914062 9.546875 -3.625 10.671875 -3.625 C 11.503906 -3.625 12.25 -3.765625 12.90625 -4.046875 C 13.570312 -4.335938 14.253906 -4.800781 14.953125 -5.4375 L 17.8125 -2.90625 C 16.976562 -1.863281 15.96875 -1.050781 14.78125 -0.46875 C 13.601562 0.101562 12.210938 0.390625 10.609375 0.390625 Z M 13.828125 -10.203125 C 13.679688 -11.328125 13.285156 -12.234375 12.640625 -12.921875 C 12.003906 -13.617188 11.160156 -13.96875 10.109375 -13.96875 C 9.054688 -13.96875 8.207031 -13.625 7.5625 -12.9375 C 6.914062 -12.257812 6.492188 -11.347656 6.296875 -10.203125 Z M 13.828125 -10.203125 "/></g></g></g><g fill="#000000" fill-opacity="1"><g transform="translate(118.425644, 32.422537)"><g><path d="M 10.578125 0.390625 C 9.253906 0.390625 8.023438 0.148438 6.890625 -0.328125 C 5.765625 -0.804688 4.796875 -1.457031 3.984375 -2.28125 C 3.171875 -3.113281 2.535156 -4.082031 2.078125 -5.1875 C 1.617188 -6.289062 1.390625 -7.472656 1.390625 -8.734375 L 1.390625 -8.796875 C 1.390625 -10.046875 1.617188 -11.226562 2.078125 -12.34375 C 2.535156 -13.46875 3.171875 -14.445312 3.984375 -15.28125 C 4.796875 -16.113281 5.765625 -16.769531 6.890625 -17.25 C 8.023438 -17.738281 9.273438 -17.984375 10.640625 -17.984375 C 12.304688 -17.984375 13.6875 -17.71875 14.78125 -17.1875 C 15.882812 -16.664062 16.851562 -15.941406 17.6875 -15.015625 L 14.625 -11.71875 C 14.050781 -12.3125 13.460938 -12.785156 12.859375 -13.140625 C 12.253906 -13.492188 11.503906 -13.671875 10.609375 -13.671875 C 9.972656 -13.671875 9.394531 -13.539062 8.875 -13.28125 C 8.363281 -13.03125 7.914062 -12.6875 7.53125 -12.25 C 7.144531 -11.8125 6.847656 -11.300781 6.640625 -10.71875 C 6.429688 -10.132812 6.328125 -9.515625 6.328125 -8.859375 L 6.328125 -8.796875 C 6.328125 -8.109375 6.429688 -7.46875 6.640625 -6.875 C 6.847656 -6.289062 7.148438 -5.773438 7.546875 -5.328125 C 7.941406 -4.890625 8.410156 -4.546875 8.953125 -4.296875 C 9.503906 -4.046875 10.117188 -3.921875 10.796875 -3.921875 C 11.640625 -3.921875 12.375 -4.085938 13 -4.421875 C 13.625 -4.765625 14.242188 -5.222656 14.859375 -5.796875 L 17.78125 -2.828125 C 16.925781 -1.890625 15.945312 -1.117188 14.84375 -0.515625 C 13.75 0.0859375 12.328125 0.390625 10.578125 0.390625 Z M 10.578125 0.390625 "/></g></g></g><g fill="#000000" fill-opacity="1"><g transform="translate(137.233349, 32.422537)"><g><path d="M 2.234375 -24.046875 L 7.25 -24.046875 L 7.25 -15.15625 C 7.53125 -15.53125 7.84375 -15.882812 8.1875 -16.21875 C 8.53125 -16.5625 8.910156 -16.863281 9.328125 -17.125 C 9.742188 -17.382812 10.203125 -17.59375 10.703125 -17.75 C 11.210938 -17.90625 11.785156 -17.984375 12.421875 -17.984375 C 14.328125 -17.984375 15.800781 -17.398438 16.84375 -16.234375 C 17.882812 -15.078125 18.40625 -13.472656 18.40625 -11.421875 L 18.40625 0 L 13.40625 0 L 13.40625 -9.84375 C 13.40625 -11.03125 13.140625 -11.925781 12.609375 -12.53125 C 12.085938 -13.132812 11.34375 -13.4375 10.375 -13.4375 C 9.40625 -13.4375 8.640625 -13.132812 8.078125 -12.53125 C 7.523438 -11.925781 7.25 -11.03125 7.25 -9.84375 L 7.25 0 L 2.234375 0 Z M 2.234375 -24.046875 "/></g></g></g></g></g></g><g transform="matrix(1, 0, 0, 1, 65, 46)"><g clip-path="url(#33bcae629e)"><g fill="#000000" fill-opacity="1"><g transform="translate(0.913115, 19.422247)"><g><path d="M 2 -14.1875 L 3.625 -14.1875 L 8.796875 -6.4375 L 13.96875 -14.1875 L 15.578125 -14.1875 L 15.578125 0 L 13.984375 0 L 13.984375 -11.484375 L 8.8125 -3.890625 L 8.734375 -3.890625 L 3.5625 -11.46875 L 3.5625 0 L 2 0 Z M 2 -14.1875 "/></g></g></g><g fill="#000000" fill-opacity="1"><g transform="translate(21.158994, 19.422247)"><g><path d="M 7.25 -14.28125 L 8.75 -14.28125 L 15.21875 0 L 13.5 0 L 11.828125 -3.75 L 4.109375 -3.75 L 2.4375 0 L 0.796875 0 Z M 11.203125 -5.1875 L 7.984375 -12.421875 L 4.734375 -5.1875 Z M 11.203125 -5.1875 "/></g></g></g><g fill="#000000" fill-opacity="1"><g transform="translate(39.824166, 19.422247)"><g><path d="M 2 -14.1875 L 8.109375 -14.1875 C 8.984375 -14.1875 9.757812 -14.0625 10.4375 -13.8125 C 11.125 -13.5625 11.691406 -13.210938 12.140625 -12.765625 C 12.492188 -12.410156 12.765625 -12 12.953125 -11.53125 C 13.140625 -11.0625 13.234375 -10.539062 13.234375 -9.96875 L 13.234375 -9.9375 C 13.234375 -9.332031 13.140625 -8.796875 12.953125 -8.328125 C 12.765625 -7.867188 12.492188 -7.46875 12.140625 -7.125 C 11.796875 -6.78125 11.390625 -6.492188 10.921875 -6.265625 C 10.453125 -6.046875 9.941406 -5.890625 9.390625 -5.796875 L 13.734375 0 L 11.78125 0 L 7.65625 -5.515625 L 3.609375 -5.515625 L 3.609375 0 L 2 0 Z M 7.96875 -6.953125 C 8.488281 -6.953125 8.972656 -7.019531 9.421875 -7.15625 C 9.867188 -7.289062 10.253906 -7.484375 10.578125 -7.734375 C 10.898438 -7.984375 11.148438 -8.285156 11.328125 -8.640625 C 11.515625 -9.003906 11.609375 -9.414062 11.609375 -9.875 L 11.609375 -9.90625 C 11.609375 -10.789062 11.289062 -11.476562 10.65625 -11.96875 C 10.019531 -12.457031 9.128906 -12.703125 7.984375 -12.703125 L 3.609375 -12.703125 L 3.609375 -6.953125 Z M 7.96875 -6.953125 "/></g></g></g><g fill="#000000" fill-opacity="1"><g transform="translate(57.131569, 19.422247)"><g><path d="M 2 -14.1875 L 3.609375 -14.1875 L 3.609375 -5.71875 L 11.75 -14.1875 L 13.84375 -14.1875 L 7.734375 -7.984375 L 14.078125 0 L 12.078125 0 L 6.625 -6.875 L 3.609375 -3.8125 L 3.609375 0 L 2 0 Z M 2 -14.1875 "/></g></g></g><g fill="#000000" fill-opacity="1"><g transform="translate(74.357897, 19.422247)"><g><path d="M 2 -14.1875 L 12.265625 -14.1875 L 12.265625 -12.734375 L 3.609375 -12.734375 L 3.609375 -7.890625 L 11.34375 -7.890625 L 11.34375 -6.421875 L 3.609375 -6.421875 L 3.609375 -1.453125 L 12.359375 -1.453125 L 12.359375 0 L 2 0 Z M 2 -14.1875 "/></g></g></g><g fill="#000000" fill-opacity="1"><g transform="translate(90.510178, 19.422247)"><g><path d="M 5.6875 -12.703125 L 0.90625 -12.703125 L 0.90625 -14.1875 L 12.078125 -14.1875 L 12.078125 -12.703125 L 7.296875 -12.703125 L 7.296875 0 L 5.6875 0 Z M 5.6875 -12.703125 "/></g></g></g><g fill="#000000" fill-opacity="1"><g transform="translate(106.15582, 19.422247)"><g><path d="M 2.140625 -14.1875 L 3.75 -14.1875 L 3.75 0 L 2.140625 0 Z M 2.140625 -14.1875 "/></g></g></g><g fill="#000000" fill-opacity="1"><g transform="translate(114.708583, 19.422247)"><g><path d="M 2 -14.1875 L 3.5 -14.1875 L 12.4375 -2.8125 L 12.4375 -14.1875 L 14 -14.1875 L 14 0 L 12.734375 0 L 3.5625 -11.625 L 3.5625 0 L 2 0 Z M 2 -14.1875 "/></g></g></g><g fill="#000000" fill-opacity="1"><g transform="translate(133.373755, 19.422247)"><g><path d="M 8.59375 0.25 C 7.46875 0.25 6.460938 0.0625 5.578125 -0.3125 C 4.691406 -0.695312 3.9375 -1.21875 3.3125 -1.875 C 2.6875 -2.539062 2.207031 -3.316406 1.875 -4.203125 C 1.539062 -5.085938 1.375 -6.035156 1.375 -7.046875 L 1.375 -7.09375 C 1.375 -8.0625 1.546875 -8.988281 1.890625 -9.875 C 2.234375 -10.757812 2.71875 -11.539062 3.34375 -12.21875 C 3.96875 -12.894531 4.710938 -13.429688 5.578125 -13.828125 C 6.453125 -14.222656 7.421875 -14.421875 8.484375 -14.421875 C 9.085938 -14.421875 9.632812 -14.378906 10.125 -14.296875 C 10.613281 -14.222656 11.070312 -14.101562 11.5 -13.9375 C 11.925781 -13.78125 12.320312 -13.582031 12.6875 -13.34375 C 13.0625 -13.101562 13.425781 -12.835938 13.78125 -12.546875 L 12.75 -11.328125 C 12.476562 -11.566406 12.191406 -11.785156 11.890625 -11.984375 C 11.597656 -12.179688 11.28125 -12.347656 10.9375 -12.484375 C 10.59375 -12.628906 10.210938 -12.742188 9.796875 -12.828125 C 9.390625 -12.910156 8.9375 -12.953125 8.4375 -12.953125 C 7.644531 -12.953125 6.914062 -12.796875 6.25 -12.484375 C 5.59375 -12.171875 5.023438 -11.75 4.546875 -11.21875 C 4.078125 -10.695312 3.707031 -10.082031 3.4375 -9.375 C 3.175781 -8.664062 3.046875 -7.921875 3.046875 -7.140625 L 3.046875 -7.09375 C 3.046875 -6.238281 3.175781 -5.453125 3.4375 -4.734375 C 3.695312 -4.023438 4.070312 -3.40625 4.5625 -2.875 C 5.050781 -2.351562 5.640625 -1.941406 6.328125 -1.640625 C 7.015625 -1.347656 7.789062 -1.203125 8.65625 -1.203125 C 9.46875 -1.203125 10.226562 -1.335938 10.9375 -1.609375 C 11.65625 -1.890625 12.257812 -2.222656 12.75 -2.609375 L 12.75 -6.140625 L 8.4375 -6.140625 L 8.4375 -7.578125 L 14.28125 -7.578125 L 14.28125 -1.921875 C 13.625 -1.328125 12.8125 -0.816406 11.84375 -0.390625 C 10.875 0.0351562 9.789062 0.25 8.59375 0.25 Z M 8.59375 0.25 "/></g></g></g></g></g></g></g></svg>