<svg xmlns="http://www.w3.org/2000/svg" xmlns:xlink="http://www.w3.org/1999/xlink" width="500" zoomAndPan="magnify" viewBox="0 0 375 187.499995" height="250" preserveAspectRatio="xMidYMid meet" version="1.0"><defs><g/><clipPath id="3e6629f2a9"><path d="M 99 18 L 357.003906 18 L 357.003906 84 L 99 84 Z M 99 18 " clip-rule="nonzero"/></clipPath><clipPath id="eb78e7d45c"><rect x="0" width="259" y="0" height="66"/></clipPath><clipPath id="b93c2d293b"><rect x="0" width="250" y="0" height="41"/></clipPath><clipPath id="315e3a867e"><rect x="0" width="358" y="0" height="136"/></clipPath></defs><g transform="matrix(1, 0, 0, 1, 9, 26)"><g clip-path="url(#315e3a867e)"><path stroke-linecap="round" transform="matrix(0.286997, 0, 0, 0.285364, -2.349481, 1.451194)" fill="none" stroke-linejoin="round" d="M 315.395482 85.478624 L 190.992902 85.478624 C 129.431319 92.8568 80.214718 150.020555 83.236312 204.227563 C 81.888845 277.776618 154.57044 312.477316 181.478963 312.792155 L 244.878002 312.792155 L 244.878002 266.743575 " stroke="#ffc300" stroke-width="40" stroke-opacity="1" stroke-miterlimit="4"/><path stroke-linecap="round" transform="matrix(0.286997, 0, 0, 0.285364, -2.349481, 1.451194)" fill="none" stroke-linejoin="round" d="M 316.470734 331.066487 L 316.470734 172.524676 L 179.151518 172.524676 L 179.287626 214.836258 " stroke="#ffc300" stroke-width="40" stroke-opacity="1" stroke-miterlimit="4"/><path fill="#ffc300" d="M 96.71875 100.363281 C 96.71875 100.902344 96.664062 101.4375 96.558594 101.96875 C 96.453125 102.5 96.296875 103.011719 96.085938 103.511719 C 95.878906 104.011719 95.625 104.488281 95.320312 104.9375 C 95.019531 105.386719 94.675781 105.800781 94.292969 106.183594 C 93.90625 106.566406 93.488281 106.910156 93.035156 107.210938 C 92.585938 107.507812 92.105469 107.761719 91.605469 107.96875 C 91.101562 108.175781 90.585938 108.332031 90.050781 108.4375 C 89.519531 108.542969 88.980469 108.597656 88.433594 108.597656 C 87.890625 108.597656 87.351562 108.542969 86.820312 108.4375 C 86.285156 108.332031 85.769531 108.175781 85.265625 107.96875 C 84.761719 107.761719 84.285156 107.507812 83.832031 107.210938 C 83.382812 106.910156 82.964844 106.566406 82.578125 106.183594 C 82.195312 105.800781 81.851562 105.386719 81.546875 104.9375 C 81.246094 104.488281 80.992188 104.011719 80.785156 103.511719 C 80.574219 103.011719 80.417969 102.5 80.3125 101.96875 C 80.207031 101.4375 80.152344 100.902344 80.152344 100.363281 C 80.152344 99.820312 80.207031 99.285156 80.3125 98.753906 C 80.417969 98.226562 80.574219 97.710938 80.785156 97.210938 C 80.992188 96.710938 81.246094 96.234375 81.546875 95.785156 C 81.851562 95.335938 82.195312 94.921875 82.578125 94.539062 C 82.964844 94.15625 83.382812 93.816406 83.832031 93.515625 C 84.285156 93.214844 84.761719 92.960938 85.265625 92.753906 C 85.769531 92.546875 86.285156 92.390625 86.820312 92.285156 C 87.351562 92.179688 87.890625 92.125 88.433594 92.125 C 88.980469 92.125 89.519531 92.179688 90.050781 92.285156 C 90.585938 92.390625 91.101562 92.546875 91.605469 92.753906 C 92.105469 92.960938 92.585938 93.214844 93.035156 93.515625 C 93.488281 93.816406 93.90625 94.15625 94.292969 94.539062 C 94.675781 94.921875 95.019531 95.335938 95.320312 95.785156 C 95.625 96.234375 95.878906 96.710938 96.085938 97.210938 C 96.296875 97.710938 96.453125 98.226562 96.558594 98.753906 C 96.664062 99.285156 96.71875 99.820312 96.71875 100.363281 Z M 96.71875 100.363281 " fill-opacity="1" fill-rule="nonzero"/><g clip-path="url(#3e6629f2a9)"><g transform="matrix(1, 0, 0, 1, 99, 18)"><g clip-path="url(#eb78e7d45c)"><g fill="#000000" fill-opacity="1"><g transform="translate(1.000616, 52.630612)"><g><path d="M 22.578125 0.640625 C 19.648438 0.640625 16.976562 0.160156 14.5625 -0.796875 C 12.144531 -1.765625 10.066406 -3.109375 8.328125 -4.828125 C 6.597656 -6.546875 5.25 -8.582031 4.28125 -10.9375 C 3.320312 -13.300781 2.84375 -15.878906 2.84375 -18.671875 L 2.84375 -18.78125 C 2.84375 -21.457031 3.332031 -23.96875 4.3125 -26.3125 C 5.300781 -28.65625 6.671875 -30.710938 8.421875 -32.484375 C 10.171875 -34.253906 12.242188 -35.644531 14.640625 -36.65625 C 17.035156 -37.675781 19.664062 -38.1875 22.53125 -38.1875 C 24.207031 -38.1875 25.734375 -38.070312 27.109375 -37.84375 C 28.492188 -37.613281 29.773438 -37.28125 30.953125 -36.84375 C 32.128906 -36.414062 33.234375 -35.878906 34.265625 -35.234375 C 35.304688 -34.597656 36.3125 -33.867188 37.28125 -33.046875 L 32.078125 -26.765625 C 31.359375 -27.367188 30.640625 -27.90625 29.921875 -28.375 C 29.210938 -28.84375 28.472656 -29.234375 27.703125 -29.546875 C 26.929688 -29.867188 26.097656 -30.117188 25.203125 -30.296875 C 24.316406 -30.484375 23.335938 -30.578125 22.265625 -30.578125 C 20.765625 -30.578125 19.359375 -30.265625 18.046875 -29.640625 C 16.742188 -29.015625 15.597656 -28.171875 14.609375 -27.109375 C 13.628906 -26.054688 12.863281 -24.820312 12.3125 -23.40625 C 11.757812 -22 11.484375 -20.488281 11.484375 -18.875 L 11.484375 -18.78125 C 11.484375 -17.0625 11.757812 -15.476562 12.3125 -14.03125 C 12.863281 -12.582031 13.648438 -11.320312 14.671875 -10.25 C 15.691406 -9.175781 16.890625 -8.34375 18.265625 -7.75 C 19.640625 -7.15625 21.164062 -6.859375 22.84375 -6.859375 C 25.925781 -6.859375 28.519531 -7.613281 30.625 -9.125 L 30.625 -14.484375 L 22.3125 -14.484375 L 22.3125 -21.609375 L 38.625 -21.609375 L 38.625 -5.3125 C 36.6875 -3.664062 34.382812 -2.257812 31.71875 -1.09375 C 29.0625 0.0625 26.015625 0.640625 22.578125 0.640625 Z M 22.578125 0.640625 "/></g></g></g><g fill="#000000" fill-opacity="1"><g transform="translate(43.056531, 52.630612)"><g><path d="M 17.75 0.640625 C 15.53125 0.640625 13.472656 0.257812 11.578125 -0.5 C 9.691406 -1.269531 8.054688 -2.328125 6.671875 -3.671875 C 5.296875 -5.015625 4.210938 -6.585938 3.421875 -8.390625 C 2.640625 -10.203125 2.25 -12.144531 2.25 -14.21875 L 2.25 -14.328125 C 2.25 -16.398438 2.640625 -18.335938 3.421875 -20.140625 C 4.210938 -21.941406 5.304688 -23.519531 6.703125 -24.875 C 8.097656 -26.238281 9.742188 -27.3125 11.640625 -28.09375 C 13.535156 -28.882812 15.609375 -29.28125 17.859375 -29.28125 C 20.078125 -29.28125 22.132812 -28.894531 24.03125 -28.125 C 25.925781 -27.363281 27.5625 -26.3125 28.9375 -24.96875 C 30.3125 -23.625 31.390625 -22.050781 32.171875 -20.25 C 32.960938 -18.445312 33.359375 -16.503906 33.359375 -14.421875 L 33.359375 -14.328125 C 33.359375 -12.242188 32.960938 -10.300781 32.171875 -8.5 C 31.390625 -6.695312 30.300781 -5.113281 28.90625 -3.75 C 27.507812 -2.394531 25.863281 -1.320312 23.96875 -0.53125 C 22.082031 0.25 20.007812 0.640625 17.75 0.640625 Z M 17.859375 -6.390625 C 19.035156 -6.390625 20.082031 -6.59375 21 -7 C 21.914062 -7.40625 22.691406 -7.96875 23.328125 -8.6875 C 23.972656 -9.40625 24.460938 -10.238281 24.796875 -11.1875 C 25.140625 -12.132812 25.3125 -13.144531 25.3125 -14.21875 L 25.3125 -14.328125 C 25.3125 -15.398438 25.132812 -16.410156 24.78125 -17.359375 C 24.425781 -18.304688 23.90625 -19.144531 23.21875 -19.875 C 22.539062 -20.601562 21.738281 -21.179688 20.8125 -21.609375 C 19.882812 -22.046875 18.863281 -22.265625 17.75 -22.265625 C 16.570312 -22.265625 15.523438 -22.054688 14.609375 -21.640625 C 13.703125 -21.234375 12.925781 -20.671875 12.28125 -19.953125 C 11.632812 -19.234375 11.140625 -18.398438 10.796875 -17.453125 C 10.460938 -16.503906 10.296875 -15.492188 10.296875 -14.421875 L 10.296875 -14.328125 C 10.296875 -13.253906 10.472656 -12.242188 10.828125 -11.296875 C 11.191406 -10.347656 11.710938 -9.503906 12.390625 -8.765625 C 13.066406 -8.035156 13.859375 -7.457031 14.765625 -7.03125 C 15.679688 -6.601562 16.710938 -6.390625 17.859375 -6.390625 Z M 17.859375 -6.390625 "/></g></g></g><g fill="#000000" fill-opacity="1"><g transform="translate(78.675318, 52.630612)"><g><path d="M 4.015625 -39.15625 L 12.171875 -39.15625 L 12.171875 0 L 4.015625 0 Z M 4.015625 -39.15625 "/></g></g></g><g fill="#000000" fill-opacity="1"><g transform="translate(94.875424, 52.630612)"><g><path d="M 15.453125 0.53125 C 13.765625 0.53125 12.132812 0.210938 10.5625 -0.421875 C 8.988281 -1.066406 7.59375 -2.023438 6.375 -3.296875 C 5.164062 -4.566406 4.191406 -6.125 3.453125 -7.96875 C 2.722656 -9.8125 2.359375 -11.929688 2.359375 -14.328125 L 2.359375 -14.421875 C 2.359375 -16.816406 2.722656 -18.9375 3.453125 -20.78125 C 4.191406 -22.625 5.160156 -24.179688 6.359375 -25.453125 C 7.554688 -26.722656 8.941406 -27.675781 10.515625 -28.3125 C 12.085938 -28.957031 13.734375 -29.28125 15.453125 -29.28125 C 17.628906 -29.28125 19.421875 -28.851562 20.828125 -28 C 22.242188 -27.144531 23.4375 -26.144531 24.40625 -25 L 24.40625 -39.15625 L 32.5625 -39.15625 L 32.5625 0 L 24.40625 0 L 24.40625 -4.125 C 23.40625 -2.769531 22.195312 -1.65625 20.78125 -0.78125 C 19.375 0.09375 17.597656 0.53125 15.453125 0.53125 Z M 17.546875 -6.390625 C 18.503906 -6.390625 19.40625 -6.578125 20.25 -6.953125 C 21.09375 -7.328125 21.828125 -7.863281 22.453125 -8.5625 C 23.078125 -9.257812 23.578125 -10.097656 23.953125 -11.078125 C 24.328125 -12.054688 24.515625 -13.140625 24.515625 -14.328125 L 24.515625 -14.421875 C 24.515625 -15.609375 24.328125 -16.691406 23.953125 -17.671875 C 23.578125 -18.660156 23.078125 -19.5 22.453125 -20.1875 C 21.828125 -20.882812 21.09375 -21.421875 20.25 -21.796875 C 19.40625 -22.179688 18.503906 -22.375 17.546875 -22.375 C 16.578125 -22.375 15.671875 -22.179688 14.828125 -21.796875 C 13.992188 -21.421875 13.253906 -20.882812 12.609375 -20.1875 C 11.960938 -19.5 11.453125 -18.671875 11.078125 -17.703125 C 10.703125 -16.734375 10.515625 -15.640625 10.515625 -14.421875 L 10.515625 -14.328125 C 10.515625 -13.140625 10.703125 -12.054688 11.078125 -11.078125 C 11.453125 -10.097656 11.960938 -9.257812 12.609375 -8.5625 C 13.253906 -7.863281 13.992188 -7.328125 14.828125 -6.953125 C 15.671875 -6.578125 16.578125 -6.390625 17.546875 -6.390625 Z M 17.546875 -6.390625 "/></g></g></g><g fill="#000000" fill-opacity="1"><g transform="translate(131.084278, 52.630612)"><g><path d="M 13.25 -29.9375 L 1.828125 -29.9375 L 1.828125 -37.546875 L 32.9375 -37.546875 L 32.9375 -29.9375 L 21.515625 -29.9375 L 21.515625 0 L 13.25 0 Z M 13.25 -29.9375 "/></g></g></g><g fill="#000000" fill-opacity="1"><g transform="translate(160.212135, 52.630612)"><g><path d="M 17.265625 0.640625 C 15.117188 0.640625 13.125 0.285156 11.28125 -0.421875 C 9.445312 -1.140625 7.859375 -2.160156 6.515625 -3.484375 C 5.171875 -4.804688 4.125 -6.367188 3.375 -8.171875 C 2.625 -9.984375 2.25 -12 2.25 -14.21875 L 2.25 -14.328125 C 2.25 -16.359375 2.597656 -18.285156 3.296875 -20.109375 C 3.992188 -21.929688 4.96875 -23.519531 6.21875 -24.875 C 7.46875 -26.238281 8.957031 -27.3125 10.6875 -28.09375 C 12.425781 -28.882812 14.351562 -29.28125 16.46875 -29.28125 C 18.863281 -29.28125 20.9375 -28.851562 22.6875 -28 C 24.4375 -27.144531 25.894531 -25.992188 27.0625 -24.546875 C 28.226562 -23.097656 29.085938 -21.429688 29.640625 -19.546875 C 30.191406 -17.671875 30.46875 -15.710938 30.46875 -13.671875 C 30.46875 -13.359375 30.457031 -13.019531 30.4375 -12.65625 C 30.425781 -12.300781 30.398438 -11.925781 30.359375 -11.53125 L 10.359375 -11.53125 C 10.742188 -9.675781 11.550781 -8.273438 12.78125 -7.328125 C 14.019531 -6.378906 15.550781 -5.90625 17.375 -5.90625 C 18.738281 -5.90625 19.957031 -6.132812 21.03125 -6.59375 C 22.101562 -7.0625 23.210938 -7.8125 24.359375 -8.84375 L 29.015625 -4.71875 C 27.660156 -3.039062 26.015625 -1.726562 24.078125 -0.78125 C 22.148438 0.164062 19.878906 0.640625 17.265625 0.640625 Z M 22.53125 -16.625 C 22.28125 -18.445312 21.632812 -19.921875 20.59375 -21.046875 C 19.5625 -22.179688 18.1875 -22.75 16.46875 -22.75 C 14.75 -22.75 13.363281 -22.191406 12.3125 -21.078125 C 11.257812 -19.972656 10.570312 -18.488281 10.25 -16.625 Z M 22.53125 -16.625 "/></g></g></g><g fill="#000000" fill-opacity="1"><g transform="translate(193.095138, 52.630612)"><g><path d="M 17.21875 0.640625 C 15.070312 0.640625 13.078125 0.25 11.234375 -0.53125 C 9.390625 -1.320312 7.804688 -2.382812 6.484375 -3.71875 C 5.160156 -5.0625 4.125 -6.632812 3.375 -8.4375 C 2.625 -10.25 2.25 -12.175781 2.25 -14.21875 L 2.25 -14.328125 C 2.25 -16.359375 2.625 -18.285156 3.375 -20.109375 C 4.125 -21.929688 5.160156 -23.519531 6.484375 -24.875 C 7.804688 -26.238281 9.390625 -27.3125 11.234375 -28.09375 C 13.078125 -28.882812 15.109375 -29.28125 17.328125 -29.28125 C 20.046875 -29.28125 22.296875 -28.851562 24.078125 -28 C 25.867188 -27.144531 27.445312 -25.960938 28.8125 -24.453125 L 23.8125 -19.09375 C 22.882812 -20.0625 21.925781 -20.832031 20.9375 -21.40625 C 19.957031 -21.976562 18.734375 -22.265625 17.265625 -22.265625 C 16.234375 -22.265625 15.296875 -22.054688 14.453125 -21.640625 C 13.617188 -21.234375 12.882812 -20.671875 12.25 -19.953125 C 11.625 -19.234375 11.140625 -18.398438 10.796875 -17.453125 C 10.460938 -16.503906 10.296875 -15.492188 10.296875 -14.421875 L 10.296875 -14.328125 C 10.296875 -13.210938 10.460938 -12.171875 10.796875 -11.203125 C 11.140625 -10.242188 11.632812 -9.40625 12.28125 -8.6875 C 12.925781 -7.96875 13.695312 -7.40625 14.59375 -7 C 15.488281 -6.59375 16.488281 -6.390625 17.59375 -6.390625 C 18.945312 -6.390625 20.132812 -6.664062 21.15625 -7.21875 C 22.175781 -7.769531 23.1875 -8.507812 24.1875 -9.4375 L 28.96875 -4.609375 C 27.570312 -3.078125 25.976562 -1.816406 24.1875 -0.828125 C 22.40625 0.148438 20.082031 0.640625 17.21875 0.640625 Z M 17.21875 0.640625 "/></g></g></g><g fill="#000000" fill-opacity="1"><g transform="translate(223.725162, 52.630612)"><g><path d="M 3.640625 -39.15625 L 11.796875 -39.15625 L 11.796875 -24.671875 C 12.265625 -25.285156 12.773438 -25.867188 13.328125 -26.421875 C 13.878906 -26.972656 14.492188 -27.460938 15.171875 -27.890625 C 15.859375 -28.316406 16.613281 -28.65625 17.4375 -28.90625 C 18.257812 -29.15625 19.1875 -29.28125 20.21875 -29.28125 C 23.332031 -29.28125 25.738281 -28.332031 27.4375 -26.4375 C 29.132812 -24.550781 29.984375 -21.941406 29.984375 -18.609375 L 29.984375 0 L 21.828125 0 L 21.828125 -16.03125 C 21.828125 -17.96875 21.394531 -19.425781 20.53125 -20.40625 C 19.675781 -21.394531 18.460938 -21.890625 16.890625 -21.890625 C 15.316406 -21.890625 14.070312 -21.394531 13.15625 -20.40625 C 12.25 -19.425781 11.796875 -17.96875 11.796875 -16.03125 L 11.796875 0 L 3.640625 0 Z M 3.640625 -39.15625 "/></g></g></g></g></g></g><g transform="matrix(1, 0, 0, 1, 106, 75)"><g clip-path="url(#b93c2d293b)"><g fill="#000000" fill-opacity="1"><g transform="translate(1.229853, 31.459114)"><g><path d="M 3.265625 -23.09375 L 5.90625 -23.09375 L 14.328125 -10.5 L 22.734375 -23.09375 L 25.375 -23.09375 L 25.375 0 L 22.765625 0 L 22.765625 -18.71875 L 14.359375 -6.34375 L 14.21875 -6.34375 L 5.8125 -18.671875 L 5.8125 0 L 3.265625 0 Z M 3.265625 -23.09375 "/></g></g></g><g fill="#000000" fill-opacity="1"><g transform="translate(34.202067, 31.459114)"><g><path d="M 11.8125 -23.265625 L 14.25 -23.265625 L 24.78125 0 L 21.984375 0 L 19.265625 -6.109375 L 6.703125 -6.109375 L 3.953125 0 L 1.28125 0 Z M 18.25 -8.453125 L 13 -20.234375 L 7.71875 -8.453125 Z M 18.25 -8.453125 "/></g></g></g><g fill="#000000" fill-opacity="1"><g transform="translate(64.59996, 31.459114)"><g><path d="M 3.265625 -23.09375 L 13.203125 -23.09375 C 14.628906 -23.09375 15.894531 -22.890625 17 -22.484375 C 18.113281 -22.078125 19.035156 -21.515625 19.765625 -20.796875 C 20.335938 -20.222656 20.773438 -19.550781 21.078125 -18.78125 C 21.390625 -18.007812 21.546875 -17.160156 21.546875 -16.234375 L 21.546875 -16.171875 C 21.546875 -15.203125 21.390625 -14.335938 21.078125 -13.578125 C 20.773438 -12.816406 20.34375 -12.15625 19.78125 -11.59375 C 19.21875 -11.039062 18.550781 -10.582031 17.78125 -10.21875 C 17.007812 -9.851562 16.175781 -9.59375 15.28125 -9.4375 L 22.375 0 L 19.171875 0 L 12.46875 -8.96875 L 5.875 -8.96875 L 5.875 0 L 3.265625 0 Z M 12.96875 -11.3125 C 13.820312 -11.3125 14.613281 -11.421875 15.34375 -11.640625 C 16.070312 -11.867188 16.695312 -12.1875 17.21875 -12.59375 C 17.75 -13 18.160156 -13.492188 18.453125 -14.078125 C 18.753906 -14.660156 18.90625 -15.328125 18.90625 -16.078125 L 18.90625 -16.140625 C 18.90625 -17.566406 18.390625 -18.679688 17.359375 -19.484375 C 16.328125 -20.285156 14.875 -20.6875 13 -20.6875 L 5.875 -20.6875 L 5.875 -11.3125 Z M 12.96875 -11.3125 "/></g></g></g><g fill="#000000" fill-opacity="1"><g transform="translate(92.786605, 31.459114)"><g><path d="M 3.265625 -23.09375 L 5.875 -23.09375 L 5.875 -9.3125 L 19.140625 -23.09375 L 22.53125 -23.09375 L 12.609375 -13 L 22.9375 0 L 19.671875 0 L 10.796875 -11.1875 L 5.875 -6.203125 L 5.875 0 L 3.265625 0 Z M 3.265625 -23.09375 "/></g></g></g><g fill="#000000" fill-opacity="1"><g transform="translate(120.841212, 31.459114)"><g><path d="M 3.265625 -23.09375 L 19.96875 -23.09375 L 19.96875 -20.71875 L 5.875 -20.71875 L 5.875 -12.84375 L 18.484375 -12.84375 L 18.484375 -10.46875 L 5.875 -10.46875 L 5.875 -2.375 L 20.125 -2.375 L 20.125 0 L 3.265625 0 Z M 3.265625 -23.09375 "/></g></g></g><g fill="#000000" fill-opacity="1"><g transform="translate(147.146639, 31.459114)"><g><path d="M 9.265625 -20.6875 L 1.484375 -20.6875 L 1.484375 -23.09375 L 19.671875 -23.09375 L 19.671875 -20.6875 L 11.875 -20.6875 L 11.875 0 L 9.265625 0 Z M 9.265625 -20.6875 "/></g></g></g><g fill="#000000" fill-opacity="1"><g transform="translate(172.626959, 31.459114)"><g><path d="M 3.5 -23.09375 L 6.109375 -23.09375 L 6.109375 0 L 3.5 0 Z M 3.5 -23.09375 "/></g></g></g><g fill="#000000" fill-opacity="1"><g transform="translate(186.555893, 31.459114)"><g><path d="M 3.265625 -23.09375 L 5.703125 -23.09375 L 20.265625 -4.59375 L 20.265625 -23.09375 L 22.796875 -23.09375 L 22.796875 0 L 20.71875 0 L 5.8125 -18.9375 L 5.8125 0 L 3.265625 0 Z M 3.265625 -23.09375 "/></g></g></g><g fill="#000000" fill-opacity="1"><g transform="translate(216.953787, 31.459114)"><g><path d="M 13.984375 0.390625 C 12.160156 0.390625 10.53125 0.0820312 9.09375 -0.53125 C 7.65625 -1.144531 6.421875 -1.988281 5.390625 -3.0625 C 4.367188 -4.144531 3.585938 -5.40625 3.046875 -6.84375 C 2.515625 -8.289062 2.25 -9.835938 2.25 -11.484375 L 2.25 -11.546875 C 2.25 -13.128906 2.523438 -14.640625 3.078125 -16.078125 C 3.640625 -17.523438 4.425781 -18.796875 5.4375 -19.890625 C 6.457031 -20.992188 7.675781 -21.867188 9.09375 -22.515625 C 10.507812 -23.171875 12.085938 -23.5 13.828125 -23.5 C 14.796875 -23.5 15.679688 -23.429688 16.484375 -23.296875 C 17.285156 -23.160156 18.03125 -22.960938 18.71875 -22.703125 C 19.414062 -22.441406 20.066406 -22.117188 20.671875 -21.734375 C 21.273438 -21.347656 21.863281 -20.910156 22.4375 -20.421875 L 20.75 -18.453125 C 20.3125 -18.847656 19.847656 -19.203125 19.359375 -19.515625 C 18.878906 -19.835938 18.359375 -20.113281 17.796875 -20.34375 C 17.242188 -20.570312 16.628906 -20.753906 15.953125 -20.890625 C 15.285156 -21.023438 14.546875 -21.09375 13.734375 -21.09375 C 12.453125 -21.09375 11.269531 -20.835938 10.1875 -20.328125 C 9.113281 -19.816406 8.191406 -19.132812 7.421875 -18.28125 C 6.648438 -17.425781 6.046875 -16.421875 5.609375 -15.265625 C 5.171875 -14.109375 4.953125 -12.890625 4.953125 -11.609375 L 4.953125 -11.546875 C 4.953125 -10.160156 5.164062 -8.882812 5.59375 -7.71875 C 6.019531 -6.550781 6.628906 -5.539062 7.421875 -4.6875 C 8.210938 -3.832031 9.171875 -3.160156 10.296875 -2.671875 C 11.421875 -2.191406 12.6875 -1.953125 14.09375 -1.953125 C 15.414062 -1.953125 16.65625 -2.175781 17.8125 -2.625 C 18.976562 -3.070312 19.957031 -3.613281 20.75 -4.25 L 20.75 -10 L 13.734375 -10 L 13.734375 -12.34375 L 23.265625 -12.34375 L 23.265625 -3.140625 C 22.179688 -2.171875 20.851562 -1.335938 19.28125 -0.640625 C 17.707031 0.046875 15.941406 0.390625 13.984375 0.390625 Z M 13.984375 0.390625 "/></g></g></g></g></g></g></g></svg>