<svg xmlns="http://www.w3.org/2000/svg" xmlns:xlink="http://www.w3.org/1999/xlink" width="500" zoomAndPan="magnify" viewBox="0 0 375 187.499995" height="250" preserveAspectRatio="xMidYMid meet" version="1.0"><defs><g/><clipPath id="450324b5cd"><path d="M 99 18 L 357.003906 18 L 357.003906 84 L 99 84 Z M 99 18 " clip-rule="nonzero"/></clipPath><clipPath id="6972932684"><rect x="0" width="259" y="0" height="66"/></clipPath><clipPath id="4109ee7519"><rect x="0" width="250" y="0" height="41"/></clipPath><clipPath id="44f5b6c711"><rect x="0" width="358" y="0" height="136"/></clipPath></defs><g transform="matrix(1, 0, 0, 1, 9, 26)"><g clip-path="url(#44f5b6c711)"><path stroke-linecap="round" transform="matrix(0.286815, 0, 0, 0.285184, -2.235172, 1.492943)" fill="none" stroke-linejoin="round" d="M 315.387078 85.482175 L 191.001156 85.482175 C 129.427878 92.85132 80.221009 150.023833 83.230895 204.23773 C 81.882575 277.778511 154.569278 312.473761 181.4812 312.788799 L 244.879477 312.788799 L 244.879477 266.738491 " stroke="#ffc300" stroke-width="40" stroke-opacity="1" stroke-miterlimit="4"/><path stroke-linecap="round" transform="matrix(0.286815, 0, 0, 0.285184, -2.235172, 1.492943)" fill="none" stroke-linejoin="round" d="M 316.476629 331.060992 L 316.476629 172.52849 L 179.152284 172.52849 L 179.288477 214.839437 " stroke="#ffc300" stroke-width="40" stroke-opacity="1" stroke-miterlimit="4"/><path fill="#ffc300" d="M 96.769531 100.339844 C 96.769531 100.882812 96.714844 101.417969 96.609375 101.945312 C 96.503906 102.476562 96.347656 102.992188 96.140625 103.492188 C 95.929688 103.988281 95.675781 104.464844 95.375 104.914062 C 95.074219 105.363281 94.730469 105.777344 94.34375 106.160156 C 93.960938 106.542969 93.542969 106.882812 93.089844 107.183594 C 92.640625 107.484375 92.160156 107.738281 91.660156 107.945312 C 91.15625 108.152344 90.640625 108.308594 90.105469 108.414062 C 89.574219 108.519531 89.035156 108.570312 88.492188 108.570312 C 87.949219 108.570312 87.410156 108.519531 86.878906 108.414062 C 86.34375 108.308594 85.828125 108.152344 85.324219 107.945312 C 84.824219 107.738281 84.34375 107.484375 83.894531 107.183594 C 83.441406 106.882812 83.023438 106.542969 82.640625 106.160156 C 82.253906 105.777344 81.910156 105.363281 81.609375 104.914062 C 81.308594 104.464844 81.054688 103.988281 80.84375 103.492188 C 80.636719 102.992188 80.480469 102.476562 80.375 101.945312 C 80.269531 101.417969 80.214844 100.882812 80.214844 100.339844 C 80.214844 99.800781 80.269531 99.265625 80.375 98.734375 C 80.480469 98.207031 80.636719 97.691406 80.84375 97.191406 C 81.054688 96.691406 81.308594 96.21875 81.609375 95.769531 C 81.910156 95.320312 82.253906 94.902344 82.640625 94.519531 C 83.023438 94.140625 83.441406 93.796875 83.894531 93.496094 C 84.34375 93.199219 84.824219 92.945312 85.324219 92.738281 C 85.828125 92.53125 86.34375 92.375 86.878906 92.269531 C 87.410156 92.164062 87.949219 92.109375 88.492188 92.109375 C 89.035156 92.109375 89.574219 92.164062 90.105469 92.269531 C 90.640625 92.375 91.15625 92.53125 91.660156 92.738281 C 92.160156 92.945312 92.640625 93.199219 93.089844 93.496094 C 93.542969 93.796875 93.960938 94.140625 94.34375 94.519531 C 94.730469 94.902344 95.074219 95.320312 95.375 95.769531 C 95.675781 96.21875 95.929688 96.691406 96.140625 97.191406 C 96.347656 97.691406 96.503906 98.207031 96.609375 98.734375 C 96.714844 99.265625 96.769531 99.800781 96.769531 100.339844 Z M 96.769531 100.339844 " fill-opacity="1" fill-rule="nonzero"/><g clip-path="url(#450324b5cd)"><g transform="matrix(1, 0, 0, 1, 99, 18)"><g clip-path="url(#6972932684)"><g fill="#000000" fill-opacity="1"><g transform="translate(1.050244, 52.628633)"><g><path d="M 22.5625 0.640625 C 19.632812 0.640625 16.960938 0.160156 14.546875 -0.796875 C 12.140625 -1.765625 10.066406 -3.101562 8.328125 -4.8125 C 6.597656 -6.53125 5.25 -8.566406 4.28125 -10.921875 C 3.320312 -13.285156 2.84375 -15.863281 2.84375 -18.65625 L 2.84375 -18.765625 C 2.84375 -21.441406 3.332031 -23.953125 4.3125 -26.296875 C 5.300781 -28.640625 6.671875 -30.691406 8.421875 -32.453125 C 10.171875 -34.222656 12.242188 -35.617188 14.640625 -36.640625 C 17.035156 -37.660156 19.660156 -38.171875 22.515625 -38.171875 C 24.191406 -38.171875 25.71875 -38.050781 27.09375 -37.8125 C 28.46875 -37.582031 29.742188 -37.253906 30.921875 -36.828125 C 32.109375 -36.398438 33.21875 -35.863281 34.25 -35.21875 C 35.289062 -34.570312 36.296875 -33.835938 37.265625 -33.015625 L 32.0625 -26.75 C 31.34375 -27.351562 30.625 -27.890625 29.90625 -28.359375 C 29.195312 -28.828125 28.457031 -29.21875 27.6875 -29.53125 C 26.914062 -29.851562 26.082031 -30.101562 25.1875 -30.28125 C 24.300781 -30.46875 23.320312 -30.5625 22.25 -30.5625 C 20.75 -30.5625 19.34375 -30.25 18.03125 -29.625 C 16.726562 -29 15.585938 -28.15625 14.609375 -27.09375 C 13.628906 -26.039062 12.859375 -24.804688 12.296875 -23.390625 C 11.742188 -21.984375 11.46875 -20.476562 11.46875 -18.875 L 11.46875 -18.765625 C 11.46875 -17.046875 11.742188 -15.460938 12.296875 -14.015625 C 12.859375 -12.566406 13.644531 -11.304688 14.65625 -10.234375 C 15.675781 -9.160156 16.875 -8.328125 18.25 -7.734375 C 19.625 -7.148438 21.15625 -6.859375 22.84375 -6.859375 C 25.914062 -6.859375 28.503906 -7.609375 30.609375 -9.109375 L 30.609375 -14.46875 L 22.296875 -14.46875 L 22.296875 -21.609375 L 38.59375 -21.609375 L 38.59375 -5.3125 C 36.664062 -3.664062 34.367188 -2.257812 31.703125 -1.09375 C 29.046875 0.0625 26 0.640625 22.5625 0.640625 Z M 22.5625 0.640625 "/></g></g></g><g fill="#000000" fill-opacity="1"><g transform="translate(43.079577, 52.628633)"><g><path d="M 17.75 0.640625 C 15.53125 0.640625 13.472656 0.257812 11.578125 -0.5 C 9.679688 -1.269531 8.046875 -2.328125 6.671875 -3.671875 C 5.296875 -5.015625 4.210938 -6.585938 3.421875 -8.390625 C 2.640625 -10.191406 2.25 -12.128906 2.25 -14.203125 L 2.25 -14.3125 C 2.25 -16.382812 2.640625 -18.320312 3.421875 -20.125 C 4.210938 -21.9375 5.304688 -23.519531 6.703125 -24.875 C 8.097656 -26.226562 9.738281 -27.296875 11.625 -28.078125 C 13.519531 -28.867188 15.597656 -29.265625 17.859375 -29.265625 C 20.066406 -29.265625 22.117188 -28.878906 24.015625 -28.109375 C 25.910156 -27.347656 27.546875 -26.296875 28.921875 -24.953125 C 30.296875 -23.609375 31.375 -22.035156 32.15625 -20.234375 C 32.945312 -18.429688 33.34375 -16.492188 33.34375 -14.421875 L 33.34375 -14.3125 C 33.34375 -12.238281 32.945312 -10.300781 32.15625 -8.5 C 31.375 -6.695312 30.285156 -5.113281 28.890625 -3.75 C 27.492188 -2.394531 25.847656 -1.320312 23.953125 -0.53125 C 22.066406 0.25 20 0.640625 17.75 0.640625 Z M 17.859375 -6.375 C 19.035156 -6.375 20.078125 -6.578125 20.984375 -6.984375 C 21.898438 -7.398438 22.675781 -7.960938 23.3125 -8.671875 C 23.957031 -9.390625 24.445312 -10.222656 24.78125 -11.171875 C 25.125 -12.117188 25.296875 -13.128906 25.296875 -14.203125 L 25.296875 -14.3125 C 25.296875 -15.382812 25.117188 -16.394531 24.765625 -17.34375 C 24.410156 -18.289062 23.890625 -19.128906 23.203125 -19.859375 C 22.523438 -20.597656 21.722656 -21.179688 20.796875 -21.609375 C 19.867188 -22.035156 18.851562 -22.25 17.75 -22.25 C 16.5625 -22.25 15.507812 -22.039062 14.59375 -21.625 C 13.6875 -21.21875 12.910156 -20.65625 12.265625 -19.9375 C 11.628906 -19.226562 11.140625 -18.398438 10.796875 -17.453125 C 10.460938 -16.503906 10.296875 -15.492188 10.296875 -14.421875 L 10.296875 -14.3125 C 10.296875 -13.238281 10.472656 -12.226562 10.828125 -11.28125 C 11.179688 -10.332031 11.695312 -9.492188 12.375 -8.765625 C 13.0625 -8.035156 13.859375 -7.453125 14.765625 -7.015625 C 15.679688 -6.585938 16.710938 -6.375 17.859375 -6.375 Z M 17.859375 -6.375 "/></g></g></g><g fill="#000000" fill-opacity="1"><g transform="translate(78.675851, 52.628633)"><g><path d="M 4.015625 -39.140625 L 12.171875 -39.140625 L 12.171875 0 L 4.015625 0 Z M 4.015625 -39.140625 "/></g></g></g><g fill="#000000" fill-opacity="1"><g transform="translate(94.865717, 52.628633)"><g><path d="M 15.4375 0.53125 C 13.757812 0.53125 12.132812 0.210938 10.5625 -0.421875 C 8.988281 -1.066406 7.59375 -2.023438 6.375 -3.296875 C 5.164062 -4.566406 4.191406 -6.117188 3.453125 -7.953125 C 2.722656 -9.796875 2.359375 -11.914062 2.359375 -14.3125 L 2.359375 -14.421875 C 2.359375 -16.816406 2.722656 -18.929688 3.453125 -20.765625 C 4.191406 -22.609375 5.160156 -24.164062 6.359375 -25.4375 C 7.554688 -26.707031 8.9375 -27.660156 10.5 -28.296875 C 12.070312 -28.941406 13.71875 -29.265625 15.4375 -29.265625 C 17.613281 -29.265625 19.40625 -28.835938 20.8125 -27.984375 C 22.226562 -27.128906 23.421875 -26.128906 24.390625 -24.984375 L 24.390625 -39.140625 L 32.546875 -39.140625 L 32.546875 0 L 24.390625 0 L 24.390625 -4.125 C 23.390625 -2.769531 22.179688 -1.65625 20.765625 -0.78125 C 19.359375 0.09375 17.582031 0.53125 15.4375 0.53125 Z M 17.53125 -6.375 C 18.5 -6.375 19.398438 -6.5625 20.234375 -6.9375 C 21.078125 -7.3125 21.8125 -7.847656 22.4375 -8.546875 C 23.0625 -9.242188 23.5625 -10.082031 23.9375 -11.0625 C 24.3125 -12.050781 24.5 -13.132812 24.5 -14.3125 L 24.5 -14.421875 C 24.5 -15.597656 24.3125 -16.675781 23.9375 -17.65625 C 23.5625 -18.644531 23.0625 -19.488281 22.4375 -20.1875 C 21.8125 -20.882812 21.078125 -21.421875 20.234375 -21.796875 C 19.398438 -22.171875 18.5 -22.359375 17.53125 -22.359375 C 16.5625 -22.359375 15.65625 -22.171875 14.8125 -21.796875 C 13.976562 -21.421875 13.238281 -20.882812 12.59375 -20.1875 C 11.957031 -19.488281 11.445312 -18.65625 11.0625 -17.6875 C 10.6875 -16.726562 10.5 -15.640625 10.5 -14.421875 L 10.5 -14.3125 C 10.5 -13.132812 10.6875 -12.050781 11.0625 -11.0625 C 11.445312 -10.082031 11.957031 -9.242188 12.59375 -8.546875 C 13.238281 -7.847656 13.976562 -7.3125 14.8125 -6.9375 C 15.65625 -6.5625 16.5625 -6.375 17.53125 -6.375 Z M 17.53125 -6.375 "/></g></g></g><g fill="#000000" fill-opacity="1"><g transform="translate(131.051685, 52.628633)"><g><path d="M 13.234375 -29.90625 L 1.828125 -29.90625 L 1.828125 -37.53125 L 32.921875 -37.53125 L 32.921875 -29.90625 L 21.5 -29.90625 L 21.5 0 L 13.234375 0 Z M 13.234375 -29.90625 "/></g></g></g><g fill="#000000" fill-opacity="1"><g transform="translate(160.161131, 52.628633)"><g><path d="M 17.265625 0.640625 C 15.117188 0.640625 13.125 0.285156 11.28125 -0.421875 C 9.445312 -1.140625 7.859375 -2.160156 6.515625 -3.484375 C 5.171875 -4.804688 4.125 -6.367188 3.375 -8.171875 C 2.625 -9.972656 2.25 -11.984375 2.25 -14.203125 L 2.25 -14.3125 C 2.25 -16.351562 2.597656 -18.285156 3.296875 -20.109375 C 3.992188 -21.929688 4.96875 -23.519531 6.21875 -24.875 C 7.46875 -26.226562 8.957031 -27.296875 10.6875 -28.078125 C 12.425781 -28.867188 14.347656 -29.265625 16.453125 -29.265625 C 18.847656 -29.265625 20.921875 -28.835938 22.671875 -27.984375 C 24.421875 -27.128906 25.875 -25.976562 27.03125 -24.53125 C 28.195312 -23.082031 29.054688 -21.414062 29.609375 -19.53125 C 30.171875 -17.65625 30.453125 -15.703125 30.453125 -13.671875 C 30.453125 -13.347656 30.441406 -13.003906 30.421875 -12.640625 C 30.398438 -12.285156 30.375 -11.914062 30.34375 -11.53125 L 10.34375 -11.53125 C 10.738281 -9.664062 11.550781 -8.257812 12.78125 -7.3125 C 14.019531 -6.363281 15.550781 -5.890625 17.375 -5.890625 C 18.726562 -5.890625 19.941406 -6.125 21.015625 -6.59375 C 22.085938 -7.0625 23.195312 -7.8125 24.34375 -8.84375 L 29 -4.71875 C 27.644531 -3.039062 26 -1.726562 24.0625 -0.78125 C 22.132812 0.164062 19.867188 0.640625 17.265625 0.640625 Z M 22.515625 -16.625 C 22.265625 -18.445312 21.617188 -19.921875 20.578125 -21.046875 C 19.546875 -22.171875 18.171875 -22.734375 16.453125 -22.734375 C 14.742188 -22.734375 13.359375 -22.175781 12.296875 -21.0625 C 11.242188 -19.957031 10.554688 -18.476562 10.234375 -16.625 Z M 22.515625 -16.625 "/></g></g></g><g fill="#000000" fill-opacity="1"><g transform="translate(193.02335, 52.628633)"><g><path d="M 17.203125 0.640625 C 15.054688 0.640625 13.0625 0.25 11.21875 -0.53125 C 9.382812 -1.320312 7.804688 -2.382812 6.484375 -3.71875 C 5.160156 -5.0625 4.125 -6.632812 3.375 -8.4375 C 2.625 -10.25 2.25 -12.171875 2.25 -14.203125 L 2.25 -14.3125 C 2.25 -16.351562 2.625 -18.285156 3.375 -20.109375 C 4.125 -21.929688 5.160156 -23.519531 6.484375 -24.875 C 7.804688 -26.226562 9.382812 -27.296875 11.21875 -28.078125 C 13.0625 -28.867188 15.09375 -29.265625 17.3125 -29.265625 C 20.03125 -29.265625 22.28125 -28.835938 24.0625 -27.984375 C 25.851562 -27.128906 27.425781 -25.953125 28.78125 -24.453125 L 23.796875 -19.078125 C 22.867188 -20.046875 21.910156 -20.816406 20.921875 -21.390625 C 19.941406 -21.960938 18.722656 -22.25 17.265625 -22.25 C 16.222656 -22.25 15.28125 -22.039062 14.4375 -21.625 C 13.601562 -21.21875 12.875 -20.65625 12.25 -19.9375 C 11.625 -19.226562 11.140625 -18.398438 10.796875 -17.453125 C 10.460938 -16.503906 10.296875 -15.492188 10.296875 -14.421875 L 10.296875 -14.3125 C 10.296875 -13.207031 10.460938 -12.171875 10.796875 -11.203125 C 11.140625 -10.234375 11.628906 -9.390625 12.265625 -8.671875 C 12.910156 -7.960938 13.679688 -7.398438 14.578125 -6.984375 C 15.472656 -6.578125 16.472656 -6.375 17.578125 -6.375 C 18.941406 -6.375 20.128906 -6.648438 21.140625 -7.203125 C 22.160156 -7.765625 23.171875 -8.507812 24.171875 -9.4375 L 28.953125 -4.609375 C 27.554688 -3.078125 25.960938 -1.816406 24.171875 -0.828125 C 22.390625 0.148438 20.066406 0.640625 17.203125 0.640625 Z M 17.203125 0.640625 "/></g></g></g><g fill="#000000" fill-opacity="1"><g transform="translate(223.634014, 52.628633)"><g><path d="M 3.640625 -39.140625 L 11.796875 -39.140625 L 11.796875 -24.65625 C 12.253906 -25.269531 12.757812 -25.851562 13.3125 -26.40625 C 13.875 -26.957031 14.492188 -27.445312 15.171875 -27.875 C 15.847656 -28.300781 16.597656 -28.640625 17.421875 -28.890625 C 18.242188 -29.140625 19.171875 -29.265625 20.203125 -29.265625 C 23.316406 -29.265625 25.722656 -28.316406 27.421875 -26.421875 C 29.117188 -24.535156 29.96875 -21.929688 29.96875 -18.609375 L 29.96875 0 L 21.8125 0 L 21.8125 -16.03125 C 21.8125 -17.957031 21.382812 -19.410156 20.53125 -20.390625 C 19.675781 -21.378906 18.460938 -21.875 16.890625 -21.875 C 15.316406 -21.875 14.070312 -21.378906 13.15625 -20.390625 C 12.25 -19.410156 11.796875 -17.957031 11.796875 -16.03125 L 11.796875 0 L 3.640625 0 Z M 3.640625 -39.140625 "/></g></g></g></g></g></g><g transform="matrix(1, 0, 0, 1, 105, 75)"><g clip-path="url(#4109ee7519)"><g fill="#000000" fill-opacity="1"><g transform="translate(0.644344, 31.434486)"><g><path d="M 13.828125 0.390625 C 12.148438 0.390625 10.609375 0.0820312 9.203125 -0.53125 C 7.796875 -1.144531 6.570312 -1.984375 5.53125 -3.046875 C 4.5 -4.117188 3.691406 -5.378906 3.109375 -6.828125 C 2.535156 -8.273438 2.25 -9.828125 2.25 -11.484375 L 2.25 -11.546875 C 2.25 -13.171875 2.535156 -14.707031 3.109375 -16.15625 C 3.691406 -17.613281 4.5 -18.882812 5.53125 -19.96875 C 6.570312 -21.0625 7.804688 -21.921875 9.234375 -22.546875 C 10.660156 -23.171875 12.222656 -23.484375 13.921875 -23.484375 C 14.972656 -23.484375 15.921875 -23.394531 16.765625 -23.21875 C 17.617188 -23.039062 18.40625 -22.789062 19.125 -22.46875 C 19.851562 -22.15625 20.523438 -21.769531 21.140625 -21.3125 C 21.753906 -20.863281 22.347656 -20.367188 22.921875 -19.828125 L 21.140625 -17.90625 C 20.148438 -18.832031 19.085938 -19.59375 17.953125 -20.1875 C 16.828125 -20.78125 15.472656 -21.078125 13.890625 -21.078125 C 12.609375 -21.078125 11.421875 -20.832031 10.328125 -20.34375 C 9.242188 -19.863281 8.300781 -19.191406 7.5 -18.328125 C 6.695312 -17.472656 6.070312 -16.46875 5.625 -15.3125 C 5.175781 -14.164062 4.953125 -12.929688 4.953125 -11.609375 L 4.953125 -11.546875 C 4.953125 -10.203125 5.175781 -8.953125 5.625 -7.796875 C 6.070312 -6.640625 6.695312 -5.632812 7.5 -4.78125 C 8.300781 -3.925781 9.242188 -3.25 10.328125 -2.75 C 11.421875 -2.257812 12.609375 -2.015625 13.890625 -2.015625 C 15.472656 -2.015625 16.832031 -2.304688 17.96875 -2.890625 C 19.113281 -3.472656 20.238281 -4.289062 21.34375 -5.34375 L 23.0625 -3.65625 C 22.46875 -3.039062 21.84375 -2.484375 21.1875 -1.984375 C 20.539062 -1.492188 19.84375 -1.070312 19.09375 -0.71875 C 18.34375 -0.375 17.539062 -0.101562 16.6875 0.09375 C 15.832031 0.289062 14.878906 0.390625 13.828125 0.390625 Z M 13.828125 0.390625 "/></g></g></g><g fill="#000000" fill-opacity="1"><g transform="translate(26.767593, 31.434486)"><g><path d="M 13.984375 0.390625 C 12.222656 0.390625 10.625 0.0703125 9.1875 -0.5625 C 7.75 -1.195312 6.507812 -2.054688 5.46875 -3.140625 C 4.4375 -4.234375 3.640625 -5.5 3.078125 -6.9375 C 2.523438 -8.382812 2.25 -9.898438 2.25 -11.484375 L 2.25 -11.546875 C 2.25 -13.128906 2.53125 -14.644531 3.09375 -16.09375 C 3.664062 -17.539062 4.46875 -18.804688 5.5 -19.890625 C 6.539062 -20.984375 7.785156 -21.851562 9.234375 -22.5 C 10.679688 -23.15625 12.285156 -23.484375 14.046875 -23.484375 C 15.804688 -23.484375 17.40625 -23.164062 18.84375 -22.53125 C 20.289062 -21.894531 21.53125 -21.03125 22.5625 -19.9375 C 23.59375 -18.851562 24.390625 -17.585938 24.953125 -16.140625 C 25.515625 -14.703125 25.796875 -13.191406 25.796875 -11.609375 L 25.796875 -11.546875 C 25.796875 -9.960938 25.507812 -8.441406 24.9375 -6.984375 C 24.363281 -5.535156 23.5625 -4.265625 22.53125 -3.171875 C 21.5 -2.085938 20.253906 -1.222656 18.796875 -0.578125 C 17.347656 0.0664062 15.742188 0.390625 13.984375 0.390625 Z M 14.046875 -2.015625 C 15.367188 -2.015625 16.582031 -2.257812 17.6875 -2.75 C 18.800781 -3.25 19.753906 -3.925781 20.546875 -4.78125 C 21.335938 -5.632812 21.957031 -6.632812 22.40625 -7.78125 C 22.863281 -8.925781 23.09375 -10.160156 23.09375 -11.484375 L 23.09375 -11.546875 C 23.09375 -12.867188 22.863281 -14.101562 22.40625 -15.25 C 21.957031 -16.40625 21.328125 -17.410156 20.515625 -18.265625 C 19.703125 -19.128906 18.738281 -19.8125 17.625 -20.3125 C 16.519531 -20.820312 15.304688 -21.078125 13.984375 -21.078125 C 12.660156 -21.078125 11.441406 -20.828125 10.328125 -20.328125 C 9.222656 -19.835938 8.273438 -19.160156 7.484375 -18.296875 C 6.691406 -17.441406 6.070312 -16.441406 5.625 -15.296875 C 5.175781 -14.160156 4.953125 -12.929688 4.953125 -11.609375 L 4.953125 -11.546875 C 4.953125 -10.222656 5.175781 -8.984375 5.625 -7.828125 C 6.070312 -6.679688 6.703125 -5.675781 7.515625 -4.8125 C 8.328125 -3.957031 9.289062 -3.273438 10.40625 -2.765625 C 11.519531 -2.265625 12.734375 -2.015625 14.046875 -2.015625 Z M 14.046875 -2.015625 "/></g></g></g><g fill="#000000" fill-opacity="1"><g transform="translate(57.112711, 31.434486)"><g><path d="M 3.265625 -23.09375 L 5.703125 -23.09375 L 20.25 -4.578125 L 20.25 -23.09375 L 22.796875 -23.09375 L 22.796875 0 L 20.71875 0 L 5.8125 -18.9375 L 5.8125 0 L 3.265625 0 Z M 3.265625 -23.09375 "/></g></g></g><g fill="#000000" fill-opacity="1"><g transform="translate(85.478834, 31.434486)"><g><path d="M 11.1875 0.328125 C 9.332031 0.328125 7.640625 0.0234375 6.109375 -0.578125 C 4.585938 -1.179688 3.132812 -2.109375 1.75 -3.359375 L 3.359375 -5.28125 C 4.566406 -4.175781 5.785156 -3.351562 7.015625 -2.8125 C 8.253906 -2.28125 9.675781 -2.015625 11.28125 -2.015625 C 12.84375 -2.015625 14.085938 -2.378906 15.015625 -3.109375 C 15.953125 -3.847656 16.421875 -4.789062 16.421875 -5.9375 L 16.421875 -6 C 16.421875 -6.53125 16.332031 -7.007812 16.15625 -7.4375 C 15.976562 -7.863281 15.671875 -8.253906 15.234375 -8.609375 C 14.796875 -8.960938 14.1875 -9.28125 13.40625 -9.5625 C 12.625 -9.851562 11.628906 -10.128906 10.421875 -10.390625 C 9.097656 -10.671875 7.945312 -11 6.96875 -11.375 C 6 -11.75 5.191406 -12.203125 4.546875 -12.734375 C 3.910156 -13.265625 3.4375 -13.878906 3.125 -14.578125 C 2.820312 -15.285156 2.671875 -16.109375 2.671875 -17.046875 L 2.671875 -17.125 C 2.671875 -18.019531 2.859375 -18.851562 3.234375 -19.625 C 3.609375 -20.394531 4.132812 -21.0625 4.8125 -21.625 C 5.5 -22.1875 6.300781 -22.625 7.21875 -22.9375 C 8.144531 -23.257812 9.160156 -23.421875 10.265625 -23.421875 C 11.953125 -23.421875 13.425781 -23.179688 14.6875 -22.703125 C 15.957031 -22.234375 17.1875 -21.523438 18.375 -20.578125 L 16.859375 -18.5625 C 15.773438 -19.445312 14.6875 -20.085938 13.59375 -20.484375 C 12.507812 -20.878906 11.375 -21.078125 10.1875 -21.078125 C 8.675781 -21.078125 7.476562 -20.71875 6.59375 -20 C 5.71875 -19.289062 5.28125 -18.40625 5.28125 -17.34375 L 5.28125 -17.28125 C 5.28125 -16.726562 5.367188 -16.238281 5.546875 -15.8125 C 5.722656 -15.382812 6.039062 -14.988281 6.5 -14.625 C 6.957031 -14.257812 7.59375 -13.925781 8.40625 -13.625 C 9.21875 -13.332031 10.265625 -13.054688 11.546875 -12.796875 C 14.117188 -12.222656 16.015625 -11.429688 17.234375 -10.421875 C 18.453125 -9.410156 19.0625 -8.023438 19.0625 -6.265625 L 19.0625 -6.203125 C 19.0625 -5.210938 18.863281 -4.316406 18.46875 -3.515625 C 18.070312 -2.710938 17.523438 -2.023438 16.828125 -1.453125 C 16.140625 -0.878906 15.3125 -0.4375 14.34375 -0.125 C 13.375 0.175781 12.320312 0.328125 11.1875 0.328125 Z M 11.1875 0.328125 "/></g></g></g><g fill="#000000" fill-opacity="1"><g transform="translate(108.897501, 31.434486)"><g><path d="M 12.5 0.359375 C 11.070312 0.359375 9.769531 0.144531 8.59375 -0.28125 C 7.414062 -0.707031 6.398438 -1.34375 5.546875 -2.1875 C 4.703125 -3.039062 4.050781 -4.09375 3.59375 -5.34375 C 3.132812 -6.59375 2.90625 -8.035156 2.90625 -9.671875 L 2.90625 -23.09375 L 5.515625 -23.09375 L 5.515625 -9.828125 C 5.515625 -7.316406 6.132812 -5.390625 7.375 -4.046875 C 8.613281 -2.710938 10.34375 -2.046875 12.5625 -2.046875 C 14.695312 -2.046875 16.390625 -2.679688 17.640625 -3.953125 C 18.898438 -5.234375 19.53125 -7.140625 19.53125 -9.671875 L 19.53125 -23.09375 L 22.125 -23.09375 L 22.125 -9.859375 C 22.125 -8.171875 21.894531 -6.6875 21.4375 -5.40625 C 20.976562 -4.132812 20.320312 -3.066406 19.46875 -2.203125 C 18.625 -1.347656 17.613281 -0.707031 16.4375 -0.28125 C 15.257812 0.144531 13.945312 0.359375 12.5 0.359375 Z M 12.5 0.359375 "/></g></g></g><g fill="#000000" fill-opacity="1"><g transform="translate(136.241171, 31.434486)"><g><path d="M 3.265625 -23.09375 L 5.875 -23.09375 L 5.875 -2.40625 L 18.859375 -2.40625 L 18.859375 0 L 3.265625 0 Z M 3.265625 -23.09375 "/></g></g></g><g fill="#000000" fill-opacity="1"><g transform="translate(155.767723, 31.434486)"><g><path d="M 9.265625 -20.6875 L 1.484375 -20.6875 L 1.484375 -23.09375 L 19.65625 -23.09375 L 19.65625 -20.6875 L 11.875 -20.6875 L 11.875 0 L 9.265625 0 Z M 9.265625 -20.6875 "/></g></g></g><g fill="#000000" fill-opacity="1"><g transform="translate(179.219379, 31.434486)"><g><path d="M 3.5 -23.09375 L 6.109375 -23.09375 L 6.109375 0 L 3.5 0 Z M 3.5 -23.09375 "/></g></g></g><g fill="#000000" fill-opacity="1"><g transform="translate(191.126951, 31.434486)"><g><path d="M 3.265625 -23.09375 L 5.703125 -23.09375 L 20.25 -4.578125 L 20.25 -23.09375 L 22.796875 -23.09375 L 22.796875 0 L 20.71875 0 L 5.8125 -18.9375 L 5.8125 0 L 3.265625 0 Z M 3.265625 -23.09375 "/></g></g></g><g fill="#000000" fill-opacity="1"><g transform="translate(219.493073, 31.434486)"><g><path d="M 13.984375 0.390625 C 12.160156 0.390625 10.523438 0.0820312 9.078125 -0.53125 C 7.640625 -1.144531 6.410156 -1.988281 5.390625 -3.0625 C 4.367188 -4.144531 3.585938 -5.40625 3.046875 -6.84375 C 2.515625 -8.28125 2.25 -9.828125 2.25 -11.484375 L 2.25 -11.546875 C 2.25 -13.128906 2.523438 -14.640625 3.078125 -16.078125 C 3.640625 -17.515625 4.425781 -18.78125 5.4375 -19.875 C 6.445312 -20.976562 7.660156 -21.851562 9.078125 -22.5 C 10.503906 -23.15625 12.085938 -23.484375 13.828125 -23.484375 C 14.785156 -23.484375 15.664062 -23.414062 16.46875 -23.28125 C 17.269531 -23.15625 18.015625 -22.957031 18.703125 -22.6875 C 19.398438 -22.425781 20.050781 -22.101562 20.65625 -21.71875 C 21.269531 -21.332031 21.859375 -20.898438 22.421875 -20.421875 L 20.75 -18.4375 C 20.3125 -18.832031 19.847656 -19.1875 19.359375 -19.5 C 18.878906 -19.820312 18.359375 -20.097656 17.796875 -20.328125 C 17.234375 -20.566406 16.613281 -20.75 15.9375 -20.875 C 15.269531 -21.007812 14.53125 -21.078125 13.71875 -21.078125 C 12.445312 -21.078125 11.269531 -20.820312 10.1875 -20.3125 C 9.113281 -19.8125 8.191406 -19.128906 7.421875 -18.265625 C 6.648438 -17.410156 6.046875 -16.40625 5.609375 -15.25 C 5.171875 -14.101562 4.953125 -12.890625 4.953125 -11.609375 L 4.953125 -11.546875 C 4.953125 -10.160156 5.164062 -8.882812 5.59375 -7.71875 C 6.019531 -6.550781 6.628906 -5.535156 7.421875 -4.671875 C 8.210938 -3.816406 9.164062 -3.148438 10.28125 -2.671875 C 11.40625 -2.191406 12.671875 -1.953125 14.078125 -1.953125 C 15.398438 -1.953125 16.644531 -2.175781 17.8125 -2.625 C 18.976562 -3.070312 19.957031 -3.613281 20.75 -4.25 L 20.75 -10 L 13.71875 -10 L 13.71875 -12.34375 L 23.25 -12.34375 L 23.25 -3.140625 C 22.175781 -2.171875 20.851562 -1.335938 19.28125 -0.640625 C 17.707031 0.046875 15.941406 0.390625 13.984375 0.390625 Z M 13.984375 0.390625 "/></g></g></g></g></g></g></g></svg>