<svg xmlns="http://www.w3.org/2000/svg" width="1400" height="900" viewBox="0 0 1400 900" role="img" aria-labelledby="title desc">
  <title id="title">Website layout placeholder</title>
  <desc id="desc">Placeholder layout showing testimonials and lead capture sections.</desc>
  <rect width="1400" height="900" fill="#f8fafc" />
  <rect x="60" y="80" width="1280" height="740" rx="28" fill="#ffffff" stroke="#e2e8f0" stroke-width="8" />
  <rect x="120" y="140" width="360" height="32" rx="16" fill="#0f172a" />
  <rect x="120" y="200" width="560" height="18" rx="9" fill="#94a3b8" />
  <rect x="120" y="240" width="520" height="18" rx="9" fill="#cbd5f5" />
  <rect x="980" y="140" width="240" height="52" rx="26" fill="#1d4ed8" />
  <rect x="120" y="320" width="360" height="220" rx="20" fill="#f1f5f9" />
  <rect x="520" y="320" width="360" height="220" rx="20" fill="#f1f5f9" />
  <rect x="920" y="320" width="360" height="220" rx="20" fill="#f1f5f9" />
  <rect x="140" y="580" width="460" height="140" rx="20" fill="#e2e8f0" />
  <rect x="640" y="580" width="560" height="140" rx="20" fill="#fde68a" />
  <rect x="680" y="620" width="420" height="24" rx="12" fill="#b45309" />
  <rect x="680" y="660" width="300" height="24" rx="12" fill="#b45309" />
  <rect x="140" y="740" width="260" height="22" rx="11" fill="#94a3b8" />
  <rect x="420" y="740" width="260" height="22" rx="11" fill="#94a3b8" />
  <rect x="700" y="740" width="260" height="22" rx="11" fill="#94a3b8" />
</svg>
